<svg xmlns="http://www.w3.org/2000/svg" version="1.1" style="background-color:#fff;-webkit-font-smoothing:antialiased" width="850" height="600" font-family="'Helvetica Neue',Helvetica,Arial,sans-serif" font-size="18" text-rendering="optimizeLegibility"><g class="ChartTab"><g class="HeaderView"><g opacity=".8" transform="matrix(.27 0 0 .27 778 15)"><a xmlns:xlink="http://www.w3.org/1999/xlink" xlink:href="https://ourworldindata.org" target="_blank"><g><path fill="#1B2543" d="M0 0h211.2v130.1H0z"/><path fill="#E63912" d="M0 112.2h211.2v17.9H0z"/><g><path fill="none" d="M1.2 12.3h210.2v99.2H1.2z"/><path fill="#FFF" d="M37.8 32.2c0 12.7-7.7 19.4-17.1 19.4-9.7 0-16.6-7.5-16.6-18.7 0-11.7 7.3-19.3 17.1-19.3 10.1.1 16.6 7.7 16.6 18.6zm-28.6.6c0 7.9 4.3 14.9 11.8 14.9 7.5 0 11.8-6.9 11.8-15.3 0-7.3-3.8-14.9-11.8-14.9-7.9 0-11.8 7.3-11.8 15.3zM62.7 43.8c0 2.7.1 5.1.2 7.2h-4.3l-.3-4.3h-.1c-1.3 2.1-4 4.9-8.8 4.9-4.2 0-9.1-2.3-9.1-11.6V24.6h4.8v14.6c0 5 1.5 8.4 5.9 8.4 3.2 0 5.5-2.2 6.3-4.4.3-.7.4-1.6.4-2.5V24.6h4.8v19.2zM67.3 32.8c0-3.1-.1-5.8-.2-8.2h4.2l.2 5.2h.2c1.2-3.5 4.1-5.8 7.3-5.8.5 0 .9.1 1.4.2v4.5c-.5-.1-1-.2-1.6-.2-3.4 0-5.8 2.6-6.5 6.2-.1.7-.2 1.4-.2 2.2V51h-4.8V32.8zM95.4 51L86 14.2h5l4.4 18.6c1.1 4.6 2.1 9.2 2.7 12.7h.1c.6-3.7 1.8-8 3-12.8l4.9-18.5h5l4.5 18.7c1 4.4 2 8.7 2.6 12.6h.1c.8-4 1.8-8.1 3-12.7l4.9-18.5h4.9L120.6 51h-5L111 31.9c-1.1-4.7-1.9-8.3-2.4-12h-.1c-.7 3.7-1.5 7.3-2.8 12L100.4 51h-5zM154.9 37.6c0 9.8-6.8 14-13.2 14-7.2 0-12.7-5.2-12.7-13.6 0-8.8 5.8-14 13.1-14 7.7 0 12.8 5.5 12.8 13.6zm-21 .3c0 5.8 3.3 10.1 8 10.1 4.6 0 8-4.3 8-10.3 0-4.5-2.2-10.1-7.9-10.1s-8.1 5.2-8.1 10.3zM158.2 32.8c0-3.1-.1-5.8-.2-8.2h4.2l.2 5.2h.2c1.2-3.5 4.1-5.8 7.3-5.8.5 0 .9.1 1.4.2v4.5c-.5-.1-1-.2-1.6-.2-3.4 0-5.8 2.6-6.5 6.2-.1.7-.2 1.4-.2 2.2V51h-4.8V32.8zM173.5 12.3h4.8V51h-4.8V12.3zM206.5 12.3v31.9c0 2.3.1 5 .2 6.8h-4.3l-.2-4.6h-.2c-1.5 2.9-4.7 5.2-9 5.2-6.4 0-11.3-5.4-11.3-13.4-.1-8.8 5.4-14.2 11.9-14.2 4 0 6.8 1.9 8 4h.1V12.3h4.8zm-4.8 23.1c0-.6-.1-1.4-.2-2a7 7 0 00-6.9-5.6c-5 0-7.9 4.4-7.9 10.2 0 5.3 2.6 9.8 7.8 9.8 3.2 0 6.2-2.1 7.1-5.7.2-.7.2-1.3.2-2.1v-4.6zM42.8 64c.1 1.6-1.1 2.9-3.1 2.9-1.7 0-2.9-1.3-2.9-2.9 0-1.7 1.3-3 3-3 1.9 0 3 1.3 3 3zm-5.4 33.8V71.4h4.8v26.4h-4.8zM47.5 78.6c0-2.7-.1-5-.2-7.1h4.3l.3 4.4h.1c1.3-2.5 4.4-5 8.8-5 3.7 0 9.4 2.2 9.4 11.2v15.8h-4.8V82.6c0-4.3-1.6-7.8-6.1-7.8-3.2 0-5.6 2.2-6.5 4.9-.2.6-.3 1.4-.3 2.2v15.9h-4.8V78.6zM84 61.6c2.9-.4 6.3-.8 10.1-.8 6.8 0 11.7 1.6 14.9 4.6 3.3 3 5.2 7.3 5.2 13.2 0 6-1.9 10.9-5.3 14.3-3.4 3.4-9.1 5.3-16.3 5.3-3.4 0-6.2-.2-8.6-.4V61.6zm4.8 32.5c1.2.2 3 .3 4.8.3 10.2 0 15.7-5.7 15.7-15.6.1-8.7-4.9-14.2-14.9-14.2-2.5 0-4.3.2-5.6.5v29zM132.1 97.8l-.4-3.3h-.2a9.79 9.79 0 01-8.1 3.9c-5.4 0-8.1-3.8-8.1-7.6 0-6.4 5.7-9.9 15.9-9.8v-.5c0-2.2-.6-6.1-6-6.1-2.5 0-5 .8-6.9 2l-1.1-3.2c2.2-1.4 5.4-2.3 8.7-2.3 8.1 0 10.1 5.5 10.1 10.8v9.9c0 2.3.1 4.5.4 6.3h-4.3zm-.7-13.4c-5.3-.1-11.2.8-11.2 5.9 0 3.1 2.1 4.6 4.5 4.6 3.4 0 5.6-2.2 6.4-4.4.2-.5.3-1 .3-1.5v-4.6zM146.6 63.9v7.6h6.9v3.7h-6.9v14.2c0 3.3.9 5.1 3.6 5.1 1.3 0 2.2-.2 2.8-.3l.2 3.6c-.9.4-2.4.7-4.3.7-2.2 0-4-.7-5.2-2-1.4-1.4-1.9-3.8-1.9-6.9V75.1h-4.1v-3.7h4.1v-6.3l4.8-1.2zM171.4 97.8l-.4-3.3h-.2a9.79 9.79 0 01-8.1 3.9c-5.4 0-8.1-3.8-8.1-7.6 0-6.4 5.7-9.9 15.9-9.8v-.5c0-2.2-.6-6.1-6-6.1-2.5 0-5 .8-6.9 2l-1.1-3.2c2.2-1.4 5.4-2.3 8.7-2.3 8.1 0 10.1 5.5 10.1 10.8v9.9c0 2.3.1 4.5.4 6.3h-4.3zm-.7-13.4c-5.3-.1-11.2.8-11.2 5.9 0 3.1 2.1 4.6 4.5 4.6 3.4 0 5.6-2.2 6.4-4.4.2-.5.3-1 .3-1.5v-4.6z"/></g></g></a></g><a href="https://ourworldindata.org/grapher/children-living-with-hiv" target="_blank"><text font-size="25.2" x="15" y="35.2" fill="#555"><tspan x="15" y="35.16">Children living with HIV</tspan></text></a><text font-size="14.4" x="15" y="53.7" fill="#666"><tspan x="15" y="53.72">Number of children ages 0-14 who are infected with HIV.</tspan></text></g><g class="LineChart"><defs><clipPath id="a"><path d="M59.9 0h830v959.8h-830z"/></clipPath></defs><g class="AxisBoxView"><g class="HorizontalAxis" fill="#666" text-anchor="middle" font-size="16.2"><text x="69.9" y="556.5">1990</text><text x="190.7" y="556.5">1995</text><text x="311.6" y="556.5">2000</text><text x="432.4" y="556.5">2005</text><text x="553.2" y="556.5">2010</text><text x="674" y="556.5">2015</text><text x="722.4" y="556.5">2017</text></g><g class="VerticalAxis" fill="#666" dominant-baseline="middle" text-anchor="end" font-size="16.2"><text x="64.9" y="535.3">0</text><text x="64.9" y="435.6">5,000</text><text x="64.9" y="335.9">10,000</text><text x="64.9" y="236.1">15,000</text><text x="64.9" y="136.4">20,000</text></g><g class="AxisGridLines"><path stroke="#ccc" d="M69.9 535.3h652.48"/><path stroke="#ddd" stroke-dasharray="3,2" d="M69.9 435.6h652.48M69.9 335.9h652.48M69.9 236.1h652.48M69.9 136.4h652.48"/></g></g><g clip-path="url(#a)"><g class="HeightedLegend clickable"><g class="legendMark"><g class="indicator" stroke="#666" stroke-width=".5"><path d="M727.38 315.9h12.5M739.88 315.9h0M739.88 315.9h12.5"/></g><text font-size="13.5" x="757.4" y="319.9" fill="#34983f"><tspan x="757.38" y="319.95">Rwanda</tspan></text></g><g class="legendMark"><g class="indicator" stroke="#666" stroke-width=".5"><path d="M727.38 425.6h22.5M749.88 425.6h0M749.88 425.6h2.5"/></g><text font-size="13.5" x="757.4" y="429.7" fill="#ca2628"><tspan x="757.38" y="429.65">Sierra Leone</tspan></text></g><g class="legendMark"><g class="indicator" stroke="#666" stroke-width=".5"><path d="M727.38 435.6h12.5M739.88 435.6v5.5M739.88 441.1h12.5"/></g><text font-size="13.5" x="757.4" y="445.2" fill="#3360a9"><tspan x="757.38" y="445.15">Ukraine</tspan></text></g></g><g class="Lines"><g class="key-Rwanda_0"><path stroke="#34983f" stroke-linecap="round" d="M70 376l24-28 24-32h24l25-20 24-20 24-20 24-40 24-40 24-40 25-39h24l24-20h24l24 20 24 20 25 19 24 20 24 20 24 20h24l24 20 25 20 24 20 24 20 24 20 24 20h24" fill="none" stroke-width="1.5"/><g fill="#34983f"><circle cx="70" cy="376" r="2"/><circle cx="94" cy="348" r="2"/><circle cx="118" cy="316" r="2"/><circle cx="142" cy="316" r="2"/><circle cx="167" cy="296" r="2"/><circle cx="191" cy="276" r="2"/><circle cx="215" cy="256" r="2"/><circle cx="239" cy="216" r="2"/><circle cx="263" cy="176" r="2"/><circle cx="287" cy="136" r="2"/><circle cx="312" cy="97" r="2"/><circle cx="336" cy="97" r="2"/><circle cx="360" cy="77" r="2"/><circle cx="384" cy="77" r="2"/><circle cx="408" cy="97" r="2"/><circle cx="432" cy="117" r="2"/><circle cx="457" cy="136" r="2"/><circle cx="481" cy="156" r="2"/><circle cx="505" cy="176" r="2"/><circle cx="529" cy="196" r="2"/><circle cx="553" cy="196" r="2"/><circle cx="577" cy="216" r="2"/><circle cx="602" cy="236" r="2"/><circle cx="626" cy="256" r="2"/><circle cx="650" cy="276" r="2"/><circle cx="674" cy="296" r="2"/><circle cx="698" cy="316" r="2"/><circle cx="722" cy="316" r="2"/></g></g><g class="key-Sierra-Leone_0"><path stroke="#ca2628" stroke-linecap="round" d="M70 531h48l24-6h73l24-3 24-3 24-3 25-5 24-6 24-6 24-6 24-8 24-7 25-6 24-8 24-8 24-8 24-8 24-6 25-6 24-4 24-4h24l24 4 24 2" fill="none" stroke-width="1.5"/><g fill="#ca2628"><circle cx="70" cy="531" r="2"/><circle cx="94" cy="531" r="2"/><circle cx="118" cy="531" r="2"/><circle cx="142" cy="525" r="2"/><circle cx="167" cy="525" r="2"/><circle cx="191" cy="525" r="2"/><circle cx="215" cy="525" r="2"/><circle cx="239" cy="522" r="2"/><circle cx="263" cy="519" r="2"/><circle cx="287" cy="516" r="2"/><circle cx="312" cy="511" r="2"/><circle cx="336" cy="505" r="2"/><circle cx="360" cy="499" r="2"/><circle cx="384" cy="493" r="2"/><circle cx="408" cy="485" r="2"/><circle cx="432" cy="478" r="2"/><circle cx="457" cy="472" r="2"/><circle cx="481" cy="464" r="2"/><circle cx="505" cy="456" r="2"/><circle cx="529" cy="448" r="2"/><circle cx="553" cy="440" r="2"/><circle cx="577" cy="434" r="2"/><circle cx="602" cy="428" r="2"/><circle cx="626" cy="424" r="2"/><circle cx="650" cy="420" r="2"/><circle cx="674" cy="420" r="2"/><circle cx="698" cy="424" r="2"/><circle cx="722" cy="426" r="2"/></g></g><g class="key-Ukraine_0"><path stroke="#3360a9" stroke-linecap="round" d="M70 533h72l25-2 24-6h24l24-3 24-5 24-6 25-4 24-4 24-6 24-6 24-4 24-5 25-6 24-8 24-2 24-4 24-6 24-4 25-6 24-4 24-2 24-4h48" fill="none" stroke-width="1.5"/><g fill="#3360a9"><circle cx="70" cy="533" r="2"/><circle cx="94" cy="533" r="2"/><circle cx="118" cy="533" r="2"/><circle cx="142" cy="533" r="2"/><circle cx="167" cy="531" r="2"/><circle cx="191" cy="525" r="2"/><circle cx="215" cy="525" r="2"/><circle cx="239" cy="522" r="2"/><circle cx="263" cy="517" r="2"/><circle cx="287" cy="511" r="2"/><circle cx="312" cy="507" r="2"/><circle cx="336" cy="503" r="2"/><circle cx="360" cy="497" r="2"/><circle cx="384" cy="491" r="2"/><circle cx="408" cy="487" r="2"/><circle cx="432" cy="482" r="2"/><circle cx="457" cy="476" r="2"/><circle cx="481" cy="468" r="2"/><circle cx="505" cy="466" r="2"/><circle cx="529" cy="462" r="2"/><circle cx="553" cy="456" r="2"/><circle cx="577" cy="452" r="2"/><circle cx="602" cy="446" r="2"/><circle cx="626" cy="442" r="2"/><circle cx="650" cy="440" r="2"/><circle cx="674" cy="436" r="2"/><circle cx="698" cy="436" r="2"/><circle cx="722" cy="436" r="2"/></g></g></g></g></g><g class="SourcesFooter" fill="#777"><g class="clickable" fill="#777"><text font-size="12.6" x="15" y="581.6"><tspan x="15" y="581.58">Source: World Bank</tspan></text></g><text font-size="12.6" x="598.5" y="581.6"><tspan x="598.5" y="581.58"><a target="_blank" href="https://ourworldindata.org/hiv-aids/" fill="#777">OurWorldInData.org/hiv-aids/</a> • <a class="cclogo" href="http://creativecommons.org/licenses/by-sa/4.0/deed.en_US" target="_blank" fill="#777">CC BY-SA</a></tspan></text></g></g></svg>