<svg xmlns="http://www.w3.org/2000/svg" version="1.1" style="background-color:#fff;-webkit-font-smoothing:antialiased" width="850" height="600" font-family="'Helvetica Neue',Helvetica,Arial,sans-serif" font-size="18" text-rendering="optimizeLegibility"><g class="ChartTab"><g class="HeaderView"><g opacity=".8" transform="matrix(.27 0 0 .27 778 15)"><a xmlns:xlink="http://www.w3.org/1999/xlink" xlink:href="https://ourworldindata.org" target="_blank"><g><path fill="#1B2543" d="M0 0h211.2v130.1H0z"/><path fill="#E63912" d="M0 112.2h211.2v17.9H0z"/><g><path fill="none" d="M1.2 12.3h210.2v99.2H1.2z"/><path fill="#FFF" d="M37.8 32.2c0 12.7-7.7 19.4-17.1 19.4-9.7 0-16.6-7.5-16.6-18.7 0-11.7 7.3-19.3 17.1-19.3 10.1.1 16.6 7.7 16.6 18.6zm-28.6.6c0 7.9 4.3 14.9 11.8 14.9 7.5 0 11.8-6.9 11.8-15.3 0-7.3-3.8-14.9-11.8-14.9-7.9 0-11.8 7.3-11.8 15.3zM62.7 43.8c0 2.7.1 5.1.2 7.2h-4.3l-.3-4.3h-.1c-1.3 2.1-4 4.9-8.8 4.9-4.2 0-9.1-2.3-9.1-11.6V24.6h4.8v14.6c0 5 1.5 8.4 5.9 8.4 3.2 0 5.5-2.2 6.3-4.4.3-.7.4-1.6.4-2.5V24.6h4.8v19.2zM67.3 32.8c0-3.1-.1-5.8-.2-8.2h4.2l.2 5.2h.2c1.2-3.5 4.1-5.8 7.3-5.8.5 0 .9.1 1.4.2v4.5c-.5-.1-1-.2-1.6-.2-3.4 0-5.8 2.6-6.5 6.2-.1.7-.2 1.4-.2 2.2V51h-4.8V32.8zM95.4 51L86 14.2h5l4.4 18.6c1.1 4.6 2.1 9.2 2.7 12.7h.1c.6-3.7 1.8-8 3-12.8l4.9-18.5h5l4.5 18.7c1 4.4 2 8.7 2.6 12.6h.1c.8-4 1.8-8.1 3-12.7l4.9-18.5h4.9L120.6 51h-5L111 31.9c-1.1-4.7-1.9-8.3-2.4-12h-.1c-.7 3.7-1.5 7.3-2.8 12L100.4 51h-5zM154.9 37.6c0 9.8-6.8 14-13.2 14-7.2 0-12.7-5.2-12.7-13.6 0-8.8 5.8-14 13.1-14 7.7 0 12.8 5.5 12.8 13.6zm-21 .3c0 5.8 3.3 10.1 8 10.1 4.6 0 8-4.3 8-10.3 0-4.5-2.2-10.1-7.9-10.1s-8.1 5.2-8.1 10.3zM158.2 32.8c0-3.1-.1-5.8-.2-8.2h4.2l.2 5.2h.2c1.2-3.5 4.1-5.8 7.3-5.8.5 0 .9.1 1.4.2v4.5c-.5-.1-1-.2-1.6-.2-3.4 0-5.8 2.6-6.5 6.2-.1.7-.2 1.4-.2 2.2V51h-4.8V32.8zM173.5 12.3h4.8V51h-4.8V12.3zM206.5 12.3v31.9c0 2.3.1 5 .2 6.8h-4.3l-.2-4.6h-.2c-1.5 2.9-4.7 5.2-9 5.2-6.4 0-11.3-5.4-11.3-13.4-.1-8.8 5.4-14.2 11.9-14.2 4 0 6.8 1.9 8 4h.1V12.3h4.8zm-4.8 23.1c0-.6-.1-1.4-.2-2a7 7 0 00-6.9-5.6c-5 0-7.9 4.4-7.9 10.2 0 5.3 2.6 9.8 7.8 9.8 3.2 0 6.2-2.1 7.1-5.7.2-.7.2-1.3.2-2.1v-4.6zM42.8 64c.1 1.6-1.1 2.9-3.1 2.9-1.7 0-2.9-1.3-2.9-2.9 0-1.7 1.3-3 3-3 1.9 0 3 1.3 3 3zm-5.4 33.8V71.4h4.8v26.4h-4.8zM47.5 78.6c0-2.7-.1-5-.2-7.1h4.3l.3 4.4h.1c1.3-2.5 4.4-5 8.8-5 3.7 0 9.4 2.2 9.4 11.2v15.8h-4.8V82.6c0-4.3-1.6-7.8-6.1-7.8-3.2 0-5.6 2.2-6.5 4.9-.2.6-.3 1.4-.3 2.2v15.9h-4.8V78.6zM84 61.6c2.9-.4 6.3-.8 10.1-.8 6.8 0 11.7 1.6 14.9 4.6 3.3 3 5.2 7.3 5.2 13.2 0 6-1.9 10.9-5.3 14.3-3.4 3.4-9.1 5.3-16.3 5.3-3.4 0-6.2-.2-8.6-.4V61.6zm4.8 32.5c1.2.2 3 .3 4.8.3 10.2 0 15.7-5.7 15.7-15.6.1-8.7-4.9-14.2-14.9-14.2-2.5 0-4.3.2-5.6.5v29zM132.1 97.8l-.4-3.3h-.2a9.79 9.79 0 01-8.1 3.9c-5.4 0-8.1-3.8-8.1-7.6 0-6.4 5.7-9.9 15.9-9.8v-.5c0-2.2-.6-6.1-6-6.1-2.5 0-5 .8-6.9 2l-1.1-3.2c2.2-1.4 5.4-2.3 8.7-2.3 8.1 0 10.1 5.5 10.1 10.8v9.9c0 2.3.1 4.5.4 6.3h-4.3zm-.7-13.4c-5.3-.1-11.2.8-11.2 5.9 0 3.1 2.1 4.6 4.5 4.6 3.4 0 5.6-2.2 6.4-4.4.2-.5.3-1 .3-1.5v-4.6zM146.6 63.9v7.6h6.9v3.7h-6.9v14.2c0 3.3.9 5.1 3.6 5.1 1.3 0 2.2-.2 2.8-.3l.2 3.6c-.9.4-2.4.7-4.3.7-2.2 0-4-.7-5.2-2-1.4-1.4-1.9-3.8-1.9-6.9V75.1h-4.1v-3.7h4.1v-6.3l4.8-1.2zM171.4 97.8l-.4-3.3h-.2a9.79 9.79 0 01-8.1 3.9c-5.4 0-8.1-3.8-8.1-7.6 0-6.4 5.7-9.9 15.9-9.8v-.5c0-2.2-.6-6.1-6-6.1-2.5 0-5 .8-6.9 2l-1.1-3.2c2.2-1.4 5.4-2.3 8.7-2.3 8.1 0 10.1 5.5 10.1 10.8v9.9c0 2.3.1 4.5.4 6.3h-4.3zm-.7-13.4c-5.3-.1-11.2.8-11.2 5.9 0 3.1 2.1 4.6 4.5 4.6 3.4 0 5.6-2.2 6.4-4.4.2-.5.3-1 .3-1.5v-4.6z"/></g></g></a></g><a href="https://ourworldindata.org/grapher/child-mortality-by-income-level-of-country" target="_blank"><text font-size="25.2" x="15" y="35.2" fill="#555"><tspan x="15" y="35.16">Child mortality by income level of country</tspan></text></a><text font-size="14.4" x="15" y="53.7" fill="#666"><tspan x="15" y="53.72">The child mortality rate measures the share of children that die before reaching the age of 5.</tspan></text></g><g class="LineChart"><defs><clipPath id="a"><path d="M42.56 0h830v959.8h-830z"/></clipPath></defs><g class="AxisBoxView"><g class="HorizontalAxis" fill="#666" text-anchor="middle" font-size="16.2"><text x="52.6" y="556.5">1960</text><text x="165.2" y="556.5">1970</text><text x="277.9" y="556.5">1980</text><text x="390.5" y="556.5">1990</text><text x="503.2" y="556.5">2000</text><text x="615.8" y="556.5">2010</text><text x="672.2" y="556.5">2015</text></g><g class="VerticalAxis" fill="#666" dominant-baseline="middle" text-anchor="end" font-size="16.2"><text x="47.56" y="535.3">0%</text><text x="47.56" y="456.1">5%</text><text x="47.56" y="377">10%</text><text x="47.56" y="297.8">15%</text><text x="47.56" y="218.6">20%</text><text x="47.56" y="139.5">25%</text></g><g class="AxisGridLines"><path stroke="#ccc" d="M52.56 535.3h619.59"/><path stroke="#ddd" stroke-dasharray="3,2" d="M52.56 456.1h619.59M52.56 377h619.59M52.56 297.8h619.59M52.56 218.6h619.59M52.56 139.5h619.59"/></g></g><g clip-path="url(#a)"><g class="HeightedLegend clickable"><g class="legendMark"><text font-size="13.5" x="677.2" y="418.9" fill="#3360a9"><tspan x="677.15" y="418.85">Low income</tspan></text></g><g class="legendMark"><text font-size="13.5" x="677.2" y="456.1" fill="#ca2628"><tspan x="677.15" y="456.05">Lower middle income</tspan></text></g><g class="legendMark"><text font-size="13.5" x="677.2" y="472.1" fill="#34983f"><tspan x="677.15" y="472.05">World</tspan></text></g><g class="legendMark"><text font-size="13.5" x="677.2" y="510.1" fill="#f6a324"><tspan x="677.15" y="510.05">Upper middle income</tspan></text></g><g class="legendMark"><text font-size="13.5" x="677.2" y="530.6" fill="#a652ba"><tspan x="677.15" y="530.65">High income</tspan></text></g></g><g class="Lines"><g class="key-Low-income_0"><path stroke="#3360a9" stroke-linecap="round" d="M98 77l11 8 11 18 11 3 12 12 11 6 11 4 12 4 11 4 11 4 11 5 12 5 11 5 11 5 11 5 12 4 11 6 11 6 11 6 12 7 11 6 11 15 12 6 11 4 11 4 11 4 12 5 11 4 11 5 11 5 12 3 11 7 11 7 11 6 12 6 11 8 11 9 11 9 12 9 11 10 11 10 12 10 11 9 11 9 11 8 12 8 11 4 11 9 11 7 12 5 11 5 11 5" fill="none" stroke-width="1.5"/><g fill="#3360a9"><circle cx="98" cy="77" r="2"/><circle cx="109" cy="85" r="2"/><circle cx="120" cy="103" r="2"/><circle cx="131" cy="106" r="2"/><circle cx="143" cy="118" r="2"/><circle cx="154" cy="124" r="2"/><circle cx="165" cy="128" r="2"/><circle cx="177" cy="132" r="2"/><circle cx="188" cy="136" r="2"/><circle cx="199" cy="140" r="2"/><circle cx="210" cy="145" r="2"/><circle cx="222" cy="150" r="2"/><circle cx="233" cy="155" r="2"/><circle cx="244" cy="160" r="2"/><circle cx="255" cy="165" r="2"/><circle cx="267" cy="169" r="2"/><circle cx="278" cy="175" r="2"/><circle cx="289" cy="181" r="2"/><circle cx="300" cy="187" r="2"/><circle cx="312" cy="194" r="2"/><circle cx="323" cy="200" r="2"/><circle cx="334" cy="215" r="2"/><circle cx="346" cy="221" r="2"/><circle cx="357" cy="225" r="2"/><circle cx="368" cy="229" r="2"/><circle cx="379" cy="233" r="2"/><circle cx="391" cy="238" r="2"/><circle cx="402" cy="242" r="2"/><circle cx="413" cy="247" r="2"/><circle cx="424" cy="252" r="2"/><circle cx="436" cy="255" r="2"/><circle cx="447" cy="262" r="2"/><circle cx="458" cy="269" r="2"/><circle cx="469" cy="275" r="2"/><circle cx="481" cy="281" r="2"/><circle cx="492" cy="289" r="2"/><circle cx="503" cy="298" r="2"/><circle cx="514" cy="307" r="2"/><circle cx="526" cy="316" r="2"/><circle cx="537" cy="326" r="2"/><circle cx="548" cy="336" r="2"/><circle cx="560" cy="346" r="2"/><circle cx="571" cy="355" r="2"/><circle cx="582" cy="364" r="2"/><circle cx="593" cy="372" r="2"/><circle cx="605" cy="380" r="2"/><circle cx="616" cy="384" r="2"/><circle cx="627" cy="393" r="2"/><circle cx="638" cy="400" r="2"/><circle cx="650" cy="405" r="2"/><circle cx="661" cy="410" r="2"/><circle cx="672" cy="415" r="2"/></g></g><g class="key-Lower-middle-income_0"><path stroke="#ca2628" stroke-linecap="round" d="M53 153l11 9 11 7 11 6 12 5 11 7 11 7 11 6 12 7 11 6 11 6 12 10 11 7 11 6 11 7 12 6 11 7 11 8 11 6 12 8 11 7 11 7 11 6 12 6 11 6 11 6 12 5 11 5 11 5 11 5 12 4 11 5 11 4 11 4 12 4 11 4 11 4 11 4 12 5 11 4 11 5 11 5 12 5 11 5 11 4 12 6 11 4 11 4 11 4 12 5 11 4 11 3 11 4 12 4 11 3 11 3" fill="none" stroke-width="1.5"/><g fill="#ca2628"><circle cx="53" cy="153" r="2"/><circle cx="64" cy="162" r="2"/><circle cx="75" cy="169" r="2"/><circle cx="86" cy="175" r="2"/><circle cx="98" cy="180" r="2"/><circle cx="109" cy="187" r="2"/><circle cx="120" cy="194" r="2"/><circle cx="131" cy="200" r="2"/><circle cx="143" cy="207" r="2"/><circle cx="154" cy="213" r="2"/><circle cx="165" cy="219" r="2"/><circle cx="177" cy="229" r="2"/><circle cx="188" cy="236" r="2"/><circle cx="199" cy="242" r="2"/><circle cx="210" cy="249" r="2"/><circle cx="222" cy="255" r="2"/><circle cx="233" cy="262" r="2"/><circle cx="244" cy="270" r="2"/><circle cx="255" cy="276" r="2"/><circle cx="267" cy="284" r="2"/><circle cx="278" cy="291" r="2"/><circle cx="289" cy="298" r="2"/><circle cx="300" cy="304" r="2"/><circle cx="312" cy="310" r="2"/><circle cx="323" cy="316" r="2"/><circle cx="334" cy="322" r="2"/><circle cx="346" cy="327" r="2"/><circle cx="357" cy="332" r="2"/><circle cx="368" cy="337" r="2"/><circle cx="379" cy="342" r="2"/><circle cx="391" cy="346" r="2"/><circle cx="402" cy="351" r="2"/><circle cx="413" cy="355" r="2"/><circle cx="424" cy="359" r="2"/><circle cx="436" cy="363" r="2"/><circle cx="447" cy="367" r="2"/><circle cx="458" cy="371" r="2"/><circle cx="469" cy="375" r="2"/><circle cx="481" cy="380" r="2"/><circle cx="492" cy="384" r="2"/><circle cx="503" cy="389" r="2"/><circle cx="514" cy="394" r="2"/><circle cx="526" cy="399" r="2"/><circle cx="537" cy="404" r="2"/><circle cx="548" cy="408" r="2"/><circle cx="560" cy="414" r="2"/><circle cx="571" cy="418" r="2"/><circle cx="582" cy="422" r="2"/><circle cx="593" cy="426" r="2"/><circle cx="605" cy="431" r="2"/><circle cx="616" cy="435" r="2"/><circle cx="627" cy="438" r="2"/><circle cx="638" cy="442" r="2"/><circle cx="650" cy="446" r="2"/><circle cx="661" cy="449" r="2"/><circle cx="672" cy="452" r="2"/></g></g><g class="key-Upper-middle-income_0"><path stroke="#f6a324" stroke-linecap="round" d="M154 344l11 13 12 4 11 8 11 8 11 6 12 8 11 7 11 6 11 6 12 6 11 4 11 5 11 5 12 4 11 4 11 4 12 2 11 3 11 1 11 2 12 1 11 1 11 2 11 2 12 3 11 2 11 3 11 2 12 3 11 3 11 3 11 3 12 2 11 3 11 3 12 3 11 2 11 2 11 2 12 2 11 2 11 1 11 2 12 2 11 1 11 1" fill="none" stroke-width="1.5"/><g fill="#f6a324"><circle cx="154" cy="344" r="2"/><circle cx="165" cy="357" r="2"/><circle cx="177" cy="361" r="2"/><circle cx="188" cy="369" r="2"/><circle cx="199" cy="377" r="2"/><circle cx="210" cy="383" r="2"/><circle cx="222" cy="391" r="2"/><circle cx="233" cy="398" r="2"/><circle cx="244" cy="404" r="2"/><circle cx="255" cy="410" r="2"/><circle cx="267" cy="416" r="2"/><circle cx="278" cy="420" r="2"/><circle cx="289" cy="425" r="2"/><circle cx="300" cy="430" r="2"/><circle cx="312" cy="434" r="2"/><circle cx="323" cy="438" r="2"/><circle cx="334" cy="442" r="2"/><circle cx="346" cy="444" r="2"/><circle cx="357" cy="447" r="2"/><circle cx="368" cy="448" r="2"/><circle cx="379" cy="450" r="2"/><circle cx="391" cy="451" r="2"/><circle cx="402" cy="452" r="2"/><circle cx="413" cy="454" r="2"/><circle cx="424" cy="456" r="2"/><circle cx="436" cy="459" r="2"/><circle cx="447" cy="461" r="2"/><circle cx="458" cy="464" r="2"/><circle cx="469" cy="466" r="2"/><circle cx="481" cy="469" r="2"/><circle cx="492" cy="472" r="2"/><circle cx="503" cy="475" r="2"/><circle cx="514" cy="478" r="2"/><circle cx="526" cy="480" r="2"/><circle cx="537" cy="483" r="2"/><circle cx="548" cy="486" r="2"/><circle cx="560" cy="489" r="2"/><circle cx="571" cy="491" r="2"/><circle cx="582" cy="493" r="2"/><circle cx="593" cy="495" r="2"/><circle cx="605" cy="497" r="2"/><circle cx="616" cy="499" r="2"/><circle cx="627" cy="500" r="2"/><circle cx="638" cy="502" r="2"/><circle cx="650" cy="504" r="2"/><circle cx="661" cy="505" r="2"/><circle cx="672" cy="506" r="2"/></g></g><g class="key-High-income_0"><path stroke="#a652ba" stroke-linecap="round" d="M53 464l11 4 11 3 11 2 12 2 11 3 11 3 11 2 12 3 11 2 11 3 12 2 11-2 11 2 11 2 12 2 11 2 11 2 11 2 12 1 11 1 11 2 11 1 12 1 11 1 11 2 12 1h11l11 1 11 1 12 1 11 1 11 1 11 1 12 1h11l11 1 11 1h12l11 1h34l11 1h34l11 1h23l11 1h45l11 1" fill="none" stroke-width="1.5"/><g fill="#a652ba"><circle cx="53" cy="464" r="2"/><circle cx="64" cy="468" r="2"/><circle cx="75" cy="471" r="2"/><circle cx="86" cy="473" r="2"/><circle cx="98" cy="475" r="2"/><circle cx="109" cy="478" r="2"/><circle cx="120" cy="481" r="2"/><circle cx="131" cy="483" r="2"/><circle cx="143" cy="486" r="2"/><circle cx="154" cy="488" r="2"/><circle cx="165" cy="491" r="2"/><circle cx="177" cy="493" r="2"/><circle cx="188" cy="491" r="2"/><circle cx="199" cy="493" r="2"/><circle cx="210" cy="495" r="2"/><circle cx="222" cy="497" r="2"/><circle cx="233" cy="499" r="2"/><circle cx="244" cy="501" r="2"/><circle cx="255" cy="503" r="2"/><circle cx="267" cy="504" r="2"/><circle cx="278" cy="505" r="2"/><circle cx="289" cy="507" r="2"/><circle cx="300" cy="508" r="2"/><circle cx="312" cy="509" r="2"/><circle cx="323" cy="510" r="2"/><circle cx="334" cy="512" r="2"/><circle cx="346" cy="513" r="2"/><circle cx="357" cy="513" r="2"/><circle cx="368" cy="514" r="2"/><circle cx="379" cy="515" r="2"/><circle cx="391" cy="516" r="2"/><circle cx="402" cy="517" r="2"/><circle cx="413" cy="518" r="2"/><circle cx="424" cy="519" r="2"/><circle cx="436" cy="520" r="2"/><circle cx="447" cy="520" r="2"/><circle cx="458" cy="521" r="2"/><circle cx="469" cy="522" r="2"/><circle cx="481" cy="522" r="2"/><circle cx="492" cy="523" r="2"/><circle cx="503" cy="523" r="2"/><circle cx="514" cy="523" r="2"/><circle cx="526" cy="523" r="2"/><circle cx="537" cy="524" r="2"/><circle cx="548" cy="524" r="2"/><circle cx="560" cy="524" r="2"/><circle cx="571" cy="524" r="2"/><circle cx="582" cy="525" r="2"/><circle cx="593" cy="525" r="2"/><circle cx="605" cy="525" r="2"/><circle cx="616" cy="526" r="2"/><circle cx="627" cy="526" r="2"/><circle cx="638" cy="526" r="2"/><circle cx="650" cy="526" r="2"/><circle cx="661" cy="526" r="2"/><circle cx="672" cy="527" r="2"/></g></g><g class="key-World_0"><path stroke="#34983f" stroke-linecap="round" d="M53 246l11 4 11 5 11 5 12-2 11 4 11 2 11 4 12 8 11 22 11 8 12 5 11 5 11 5 11 5 12 4 11 5 11 4 11 4 12 4 11 4 11 5 11 5 12 4 11 6 11 4 12 4 11 4 11 4 11 3 12 2 11 2 11 2 11 1 12 1 11 2 11 2 11 3 12 3 11 3 11 4 11 4 12 4 11 5 11 4 12 4 11 4 11 4 11 3 12 4 11 2 11 4 11 3 12 3 11 3 11 2" fill="none" stroke-width="1.5"/><g fill="#34983f"><circle cx="53" cy="246" r="2"/><circle cx="64" cy="250" r="2"/><circle cx="75" cy="255" r="2"/><circle cx="86" cy="260" r="2"/><circle cx="98" cy="258" r="2"/><circle cx="109" cy="262" r="2"/><circle cx="120" cy="264" r="2"/><circle cx="131" cy="268" r="2"/><circle cx="143" cy="276" r="2"/><circle cx="154" cy="298" r="2"/><circle cx="165" cy="306" r="2"/><circle cx="177" cy="311" r="2"/><circle cx="188" cy="316" r="2"/><circle cx="199" cy="321" r="2"/><circle cx="210" cy="326" r="2"/><circle cx="222" cy="330" r="2"/><circle cx="233" cy="335" r="2"/><circle cx="244" cy="339" r="2"/><circle cx="255" cy="343" r="2"/><circle cx="267" cy="347" r="2"/><circle cx="278" cy="351" r="2"/><circle cx="289" cy="356" r="2"/><circle cx="300" cy="361" r="2"/><circle cx="312" cy="365" r="2"/><circle cx="323" cy="371" r="2"/><circle cx="334" cy="375" r="2"/><circle cx="346" cy="379" r="2"/><circle cx="357" cy="383" r="2"/><circle cx="368" cy="387" r="2"/><circle cx="379" cy="390" r="2"/><circle cx="391" cy="392" r="2"/><circle cx="402" cy="394" r="2"/><circle cx="413" cy="396" r="2"/><circle cx="424" cy="397" r="2"/><circle cx="436" cy="398" r="2"/><circle cx="447" cy="400" r="2"/><circle cx="458" cy="402" r="2"/><circle cx="469" cy="405" r="2"/><circle cx="481" cy="408" r="2"/><circle cx="492" cy="411" r="2"/><circle cx="503" cy="415" r="2"/><circle cx="514" cy="419" r="2"/><circle cx="526" cy="423" r="2"/><circle cx="537" cy="428" r="2"/><circle cx="548" cy="432" r="2"/><circle cx="560" cy="436" r="2"/><circle cx="571" cy="440" r="2"/><circle cx="582" cy="444" r="2"/><circle cx="593" cy="447" r="2"/><circle cx="605" cy="451" r="2"/><circle cx="616" cy="453" r="2"/><circle cx="627" cy="457" r="2"/><circle cx="638" cy="460" r="2"/><circle cx="650" cy="463" r="2"/><circle cx="661" cy="466" r="2"/><circle cx="672" cy="468" r="2"/></g></g></g></g></g><g class="SourcesFooter" fill="#777"><g class="clickable" fill="#777"><text font-size="12.6" x="15" y="581.6"><tspan x="15" y="581.58">Source: World Bank – WDI</tspan></text></g><text font-size="12.6" x="564.2" y="581.6"><tspan x="564.23" y="581.58"><a target="_blank" href="https://ourworldindata.org/child-mortality/" fill="#777">OurWorldInData.org/child-mortality/</a> • <a class="cclogo" href="http://creativecommons.org/licenses/by-sa/4.0/deed.en_US" target="_blank" fill="#777">CC BY-SA</a></tspan></text></g></g></svg>