<svg xmlns="http://www.w3.org/2000/svg" version="1.1" style="background-color:#fff;-webkit-font-smoothing:antialiased" width="850" height="600" font-family="Lato,'Helvetica Neue',Helvetica,Arial,sans-serif" font-size="18" text-rendering="optimizeLegibility"><g class="HeaderView"><g transform="matrix(.29 0 0 .29 774 15)"><svg width="210" height="120" viewBox="0 0 210 120" fill="none" xmlns="http://www.w3.org/2000/svg"><g clip-path="url(#clip0)"><path d="M0 0h210v107.89H0V0z" fill="#002147"/><path d="M40.98 32.25c0 2.36-.38 4.53-1.12 6.51a14.26 14.26 0 01-8.1 8.4c-1.9.78-4.02 1.17-6.34 1.17-2.31 0-4.42-.39-6.33-1.17a14.31 14.31 0 01-8.08-8.4 18.29 18.29 0 01-1.12-6.51c0-2.36.38-4.53 1.12-6.5.75-1.97 1.8-3.67 3.17-5.1 1.37-1.43 3-2.55 4.9-3.34 1.92-.8 4.03-1.19 6.34-1.19 2.32 0 4.43.4 6.34 1.19 1.92.8 3.56 1.9 4.93 3.34a14.87 14.87 0 013.17 5.1 18.1 18.1 0 011.12 6.5zm-4.38 0c0-1.94-.26-3.68-.8-5.22a10.91 10.91 0 00-2.24-3.89 9.68 9.68 0 00-3.52-2.46 11.95 11.95 0 00-4.62-.86c-1.68 0-3.21.28-4.6.86a9.88 9.88 0 00-3.54 2.46 10.91 10.91 0 00-2.24 3.9c-.53 1.53-.8 3.27-.8 5.2 0 1.94.27 3.68.8 5.22a11.17 11.17 0 002.24 3.9 10.01 10.01 0 003.55 2.44c1.38.56 2.9.83 4.6.83 1.7 0 3.24-.27 4.61-.83a9.8 9.8 0 003.52-2.44 11.17 11.17 0 002.25-3.9c.53-1.54.8-3.28.8-5.21zm26.22-6.54V48H60.5c-.56 0-.9-.27-1.05-.81l-.31-2.4a12.45 12.45 0 01-3.26 2.6c-1.2.64-2.58.96-4.13.96-1.22 0-2.3-.2-3.24-.6a6.52 6.52 0 01-2.33-1.7 7.37 7.37 0 01-1.43-2.67c-.3-1.04-.46-2.2-.46-3.45V25.7h3.91v14.22c0 1.68.38 2.99 1.15 3.91.77.93 1.96 1.39 3.54 1.39 1.16 0 2.24-.27 3.23-.82a10.42 10.42 0 002.8-2.28V25.7h3.91zm8.61 4.47a9.94 9.94 0 012.6-3.56 5.64 5.64 0 013.76-1.3c.47 0 .92.05 1.34.15.44.1.83.27 1.17.49L80 28.88c-.09.37-.3.55-.66.55-.2 0-.5-.04-.9-.13a6.21 6.21 0 00-3.24.18c-.54.2-1.03.5-1.47.92-.42.4-.81.9-1.17 1.5-.33.58-.64 1.26-.92 2.02V48h-3.94V25.71h2.25c.42 0 .72.08.88.25.16.16.27.44.33.83l.26 3.39zm61.16-13.7L122.75 48h-3.82l-7.99-24.05a21.95 21.95 0 01-.42-1.58 38.36 38.36 0 01-.44 1.58L102.05 48h-3.83L88.4 16.47h3.54c.38 0 .7.1.95.29.26.2.43.43.5.73l6.52 21.9c.1.4.2.83.28 1.28.1.46.2.94.29 1.46l.3-1.46c.12-.47.25-.9.38-1.27l7.41-21.91c.1-.25.26-.48.51-.69.27-.22.58-.33.95-.33h1.23c.38 0 .69.1.92.29.24.2.41.43.53.73l7.4 21.9a28.4 28.4 0 01.68 2.62 29.52 29.52 0 01.52-2.61l6.54-21.91c.07-.27.23-.5.48-.7.27-.21.58-.32.95-.32h3.32zm9.35 8.88c1.63 0 3.1.27 4.4.82a9.43 9.43 0 015.46 5.94c.5 1.4.74 2.98.74 4.73 0 1.76-.25 3.34-.74 4.75a9.43 9.43 0 01-5.46 5.92c-1.3.52-2.77.79-4.4.79-1.64 0-3.12-.27-4.44-.8a9.42 9.42 0 01-3.35-2.3c-.92-1-1.63-2.2-2.13-3.61-.49-1.41-.73-3-.73-4.75s.24-3.33.73-4.73c.5-1.43 1.2-2.64 2.13-3.63.93-1 2.04-1.77 3.35-2.31 1.32-.55 2.8-.82 4.44-.82zm0 19.89c2.2 0 3.84-.73 4.93-2.2 1.08-1.48 1.63-3.54 1.63-6.18 0-2.66-.55-4.72-1.63-6.2-1.09-1.49-2.73-2.23-4.93-2.23-1.12 0-2.09.2-2.93.57-.82.39-1.5.94-2.06 1.65-.55.72-.96 1.61-1.24 2.67-.26 1.04-.4 2.22-.4 3.54 0 2.64.55 4.7 1.64 6.18 1.1 1.47 2.76 2.2 4.99 2.2zm17.97-15.07a9.94 9.94 0 012.6-3.56 5.64 5.64 0 013.76-1.3c.47 0 .91.05 1.34.15.44.1.83.27 1.16.49l-.28 2.92c-.09.37-.31.55-.66.55-.2 0-.5-.04-.9-.13a6.2 6.2 0 00-3.24.18c-.54.2-1.03.5-1.47.92-.43.4-.82.9-1.17 1.5a13.1 13.1 0 00-.92 2.02V48h-3.94V25.71h2.24c.43 0 .72.08.88.25.17.16.28.44.33.83l.27 3.39zm15.04-14.59V48h-3.92V15.6h3.92zm19.55 15.43a6.22 6.22 0 00-2.38-2.05 6.7 6.7 0 00-2.86-.6c-2.07 0-3.66.75-4.77 2.23-1.12 1.48-1.68 3.6-1.68 6.33 0 1.46.13 2.7.38 3.74a7.29 7.29 0 001.1 2.56 4.35 4.35 0 001.78 1.45c.7.3 1.5.46 2.4.46 1.29 0 2.41-.3 3.36-.88a9.6 9.6 0 002.67-2.49V31.02zm3.91-15.43V48h-2.33c-.56 0-.9-.27-1.06-.81l-.35-2.71a12.13 12.13 0 01-3.25 2.77 8.28 8.28 0 01-4.23 1.06 7.31 7.31 0 01-6.14-2.9c-.73-.96-1.3-2.15-1.69-3.57a18.35 18.35 0 01.07-9.48 11.29 11.29 0 011.89-3.7 8.7 8.7 0 017.06-3.34 7.96 7.96 0 016.12 2.62V15.59h3.91zM46.61 70.71V93H42.7V70.71h3.91zm.84-7c0 .39-.08.75-.24 1.09-.15.32-.35.61-.62.88-.25.25-.55.44-.9.59a2.67 2.67 0 01-2.16 0 2.9 2.9 0 01-1.45-1.47 2.67 2.67 0 010-2.16c.15-.35.35-.65.6-.9.25-.27.53-.47.85-.62a2.67 2.67 0 012.16 0c.35.15.65.35.9.62.27.25.47.55.62.9.16.34.24.7.24 1.08zm7.97 10.24c.49-.54 1-1.04 1.54-1.48a9.85 9.85 0 013.66-1.84 8.96 8.96 0 015.43.35c.94.4 1.72.97 2.33 1.71.63.74 1.11 1.62 1.43 2.67.32 1.04.49 2.19.49 3.45V93h-3.94V78.81c0-1.69-.4-3-1.17-3.92-.76-.93-1.93-1.4-3.5-1.4-1.15 0-2.24.27-3.25.83-1 .56-1.92 1.31-2.77 2.27V93h-3.94V70.71h2.35c.56 0 .9.28 1.04.82l.3 2.42zm57.7 3.3c0 2.36-.37 4.5-1.11 6.44a14.3 14.3 0 01-3.17 4.98c-1.37 1.37-3 2.45-4.93 3.2-1.9.76-4.02 1.13-6.33 1.13H85.8V61.47h11.77c2.31 0 4.42.39 6.33 1.15a13.8 13.8 0 018.1 8.18 17.75 17.75 0 011.12 6.45zm-4.37 0c0-1.94-.26-3.67-.8-5.2a10.94 10.94 0 00-2.23-3.87 9.57 9.57 0 00-3.53-2.42 12.23 12.23 0 00-4.61-.83h-7.5v24.62h7.5c1.7 0 3.24-.28 4.61-.84a9.7 9.7 0 003.53-2.4 10.94 10.94 0 002.24-3.87c.53-1.53.8-3.26.8-5.2zm19.8 5.72c-1.8.06-3.34.2-4.62.44-1.26.22-2.3.51-3.1.88-.8.36-1.37.8-1.74 1.3-.35.5-.53 1.05-.53 1.67 0 .58.1 1.1.3 1.52a3 3 0 00.76 1.05c.34.27.73.46 1.17.6.45.11.94.17 1.45.17a7.28 7.28 0 003.5-.81 11.95 11.95 0 002.82-2.2v-4.62zm-12.65-9.11a12.73 12.73 0 013.98-2.66c1.43-.59 3-.88 4.73-.88 1.25 0 2.36.2 3.33.61a6.81 6.81 0 013.94 4.38c.33 1.04.5 2.19.5 3.43V93h-1.74a1.8 1.8 0 01-.88-.18c-.2-.13-.36-.38-.48-.74l-.44-2.12c-.59.55-1.16 1.03-1.72 1.46a9.48 9.48 0 01-3.74 1.7c-.69.15-1.46.23-2.3.23-.87 0-1.69-.12-2.45-.35a5.34 5.34 0 01-3.34-2.93 6.64 6.64 0 01-.49-2.64c0-.88.25-1.72.73-2.53a6.33 6.33 0 012.35-2.17c1.09-.63 2.5-1.15 4.25-1.54 1.75-.41 3.89-.65 6.42-.7v-1.75c0-1.73-.37-3.03-1.12-3.91-.75-.9-1.84-1.34-3.28-1.34-.97 0-1.78.12-2.44.37-.64.23-1.2.5-1.7.81l-1.23.82c-.33.23-.67.35-1 .35-.27 0-.5-.07-.69-.2a2.1 2.1 0 01-.48-.53l-.7-1.25zm27.67 19.5c-1.76 0-3.12-.5-4.07-1.48-.94-.98-1.41-2.4-1.41-4.25V74h-2.68a.9.9 0 01-.6-.2c-.16-.14-.24-.36-.24-.66v-1.56l3.65-.46.9-6.89c.05-.22.14-.4.29-.52a.88.88 0 01.62-.22H142v7.67h6.44V74h-6.44v13.38c0 .94.22 1.63.68 2.09.45.45 1.04.68 1.76.68a3.21 3.21 0 001.85-.53l.55-.35c.16-.12.3-.18.41-.18.2 0 .4.13.55.38l1.15 1.87a7.45 7.45 0 01-2.44 1.5c-.96.35-1.94.52-2.95.52zm19.68-10.4c-1.8.07-3.34.21-4.62.45-1.26.22-2.3.51-3.1.88-.8.36-1.37.8-1.74 1.3-.35.5-.53 1.05-.53 1.67 0 .58.1 1.1.3 1.52.18.42.44.77.76 1.05.34.27.73.46 1.17.6.45.11.94.17 1.45.17a7.3 7.3 0 003.5-.81 12.04 12.04 0 002.82-2.2v-4.62zm-12.65-9.1a12.72 12.72 0 013.99-2.66c1.42-.59 3-.88 4.72-.88 1.25 0 2.36.2 3.33.61a6.81 6.81 0 013.94 4.38c.33 1.04.5 2.19.5 3.43V93h-1.74a1.8 1.8 0 01-.88-.18c-.2-.13-.36-.38-.48-.74l-.44-2.12c-.59.55-1.16 1.03-1.72 1.46a9.48 9.48 0 01-3.74 1.7c-.69.15-1.46.23-2.3.23-.87 0-1.69-.12-2.45-.35a5.33 5.33 0 01-3.34-2.93 6.62 6.62 0 01-.49-2.64c0-.88.25-1.72.73-2.53a6.33 6.33 0 012.35-2.17c1.09-.63 2.5-1.15 4.25-1.54 1.74-.41 3.89-.65 6.42-.7v-1.75c0-1.73-.37-3.03-1.12-3.91-.75-.9-1.84-1.34-3.28-1.34-.97 0-1.78.12-2.44.37-.64.23-1.2.5-1.7.81-.46.3-.87.57-1.22.82-.34.23-.68.35-1.02.35-.26 0-.49-.07-.68-.2-.19-.14-.35-.32-.48-.53l-.7-1.25z" fill="#fff"/><path fill="#D42B21" d="M0 106.79h210V120H0z"/></g><defs><clipPath id="clip0"><path fill="#fff" d="M0 0h210v120H0z"/></clipPath></defs></svg></g><a href="https://ourworldindata.org/grapher/diarrheal-death-rates-children-vs-gdp-per-capita" target="_blank" font-family="&quot;Playfair Display&quot;,Georgia,&quot;Times New Roman&quot;,serif"><text font-size="21.6" x="15" y="32.3" fill="#555"><tspan x="15" y="32.28">Death rate from diarrheal disease in children vs. GDP per capita, 2017</tspan></text></a><text font-size="14.4" x="15" y="52.1" fill="#666"><tspan x="15" y="52.12">The annual number of deaths from diarrheal diseases in children under-5 per 100,000 individuals. Gross domestic</tspan><tspan x="15" y="67.96">product (GDP) per capita is measured in 2011 international-$.</tspan></text></g><g><g class="AxisBoxView"><g class="HorizontalAxis"><text font-size="12.6" x="321.8" y="554"><tspan x="321.78" y="553.98">GDP per capita</tspan></text><text x="173.3" y="533.9" fill="#666" text-anchor="middle" font-size="16.2">$20,000</text><text x="285.1" y="533.9" fill="#666" text-anchor="middle" font-size="16.2">$40,000</text><text x="396.9" y="533.9" fill="#666" text-anchor="middle" font-size="16.2">$60,000</text><text x="508.6" y="533.9" fill="#666" text-anchor="middle" font-size="16.2">$80,000</text><text x="620.4" y="533.9" fill="#666" text-anchor="middle" font-size="16.2">$100,000</text></g><g class="VerticalAxis"><text font-size="12.6" x="-409.2" y="25.1" transform="rotate(-90)"><tspan x="-409.24" y="25.08">Diarrheal diseases death rates</tspan></text><text x="60.28" y="509.8" fill="#666" dominant-baseline="middle" text-anchor="end" font-size="16.2">0.1</text><text x="60.28" y="400.5" fill="#666" dominant-baseline="middle" text-anchor="end" font-size="16.2">1</text><text x="60.28" y="291.2" fill="#666" dominant-baseline="middle" text-anchor="end" font-size="16.2">10</text><text x="60.28" y="181.9" fill="#666" dominant-baseline="middle" text-anchor="end" font-size="16.2">100</text></g><g class="AxisGridLines" stroke="#ddd" stroke-dasharray="3,2"><path d="M65.28 509.8H715M65.28 400.5H715M65.28 291.2H715M65.28 181.9H715"/></g><g class="AxisGridLines" stroke="#ddd" stroke-dasharray="3,2"><path d="M173.3 512.7V90.5M285.1 512.7V90.5M396.9 512.7V90.5M508.6 512.7V90.5M620.4 512.7V90.5"/></g></g><g class="PointsWithLabels clickable" clip-path="url(#a)" font-family="Arial, sans-serif"><path fill="rgba(255,255,255,0)" d="M65.28 90.5H715v422.2H65.28z"/><defs><clipPath id="a"><path d="M55.28 80.5H725v442.2H55.28z"/></clipPath></defs><g class="key-World_0"><circle cx="148" cy="193" r="17.84" fill="#ffcb1f" opacity=".8" stroke="#333" stroke-width=".7"/></g><g class="key-China_0"><circle cx="147" cy="349" r="7.91" fill="#d14e5b" opacity=".8" stroke="#333" stroke-width=".7"/></g><g class="key-India_0"><circle cx="97" cy="192" r="7.69" fill="#d14e5b" opacity=".8" stroke="#333" stroke-width=".7"/></g><g class="key-North-America_0"><circle cx="358" cy="374" r="4.28" fill="#ffcb1f" opacity=".8" stroke="#333" stroke-width=".7"/></g><g class="key-United-States_0"><circle cx="364" cy="372" r="4.09" fill="#4d824b" opacity=".8" stroke="#fff" stroke-width=".7"/></g><g class="key-Indonesia_0"><circle cx="124" cy="214" r="3.77" fill="#d14e5b" opacity=".8" stroke="#333" stroke-width=".7"/></g><g class="key-Pakistan_0"><circle cx="89" cy="179" r="3.44" fill="#d14e5b" opacity=".8" stroke="#fff" stroke-width=".7"/></g><g class="key-Brazil_0"><circle cx="140" cy="283" r="3.44" fill="#69c487" opacity=".8" stroke="#333" stroke-width=".7"/></g><g class="key-Nigeria_0"><circle cx="91" cy="129" r="3.34" fill="#5675c1" opacity=".8" stroke="#333" stroke-width=".7"/></g><g class="key-Bangladesh_0"><circle cx="81" cy="256" r="3.14" fill="#d14e5b" opacity=".8" stroke="#333" stroke-width=".7"/></g><g class="key-Russia_0"><circle cx="200" cy="391" r="3.04" fill="#ec8e00" opacity=".8" stroke="#333" stroke-width=".7"/></g><g class="key-Japan_0"><circle cx="279" cy="408" r="2.92" fill="#d14e5b" opacity=".8" stroke="#333" stroke-width=".7"/></g><g class="key-Mexico_0"><circle cx="158" cy="289" r="2.9" fill="#4d824b" opacity=".8" stroke="#fff" stroke-width=".7"/></g><g class="key-Ethiopia_0"><circle cx="71" cy="151" r="2.76" fill="#5675c1" opacity=".8" stroke="#333" stroke-width=".7"/></g><g class="key-Philippines_0"><circle cx="104" cy="236" r="2.75" fill="#d14e5b" opacity=".8" stroke="#333" stroke-width=".7"/></g><g class="key-Egypt_0"><circle cx="120" cy="210" r="2.68" fill="#5675c1" opacity=".8" stroke="#fff" stroke-width=".7"/></g><g class="key-Vietnam_0"><circle cx="96" cy="376" r="2.67" fill="#d14e5b" opacity=".8" stroke="#333" stroke-width=".7"/></g><g class="key-Germany_0"><circle cx="314" cy="432" r="2.58" fill="#ec8e00" opacity=".8" stroke="#333" stroke-width=".7"/></g><g class="key-Democratic-Republic-of-Congo_0"><circle cx="66" cy="163" r="2.57" fill="#5675c1" opacity=".8" stroke="#333" stroke-width=".7"/></g><g class="key-Turkey_0"><circle cx="202" cy="355" r="2.56" fill="#d14e5b" opacity=".8" stroke="#333" stroke-width=".7"/></g><g class="key-Iran_0"><circle cx="168" cy="351" r="2.56" fill="#d14e5b" opacity=".8" stroke="#fff" stroke-width=".7"/></g><g class="key-Thailand_0"><circle cx="152" cy="336" r="2.46" fill="#d14e5b" opacity=".8" stroke="#fff" stroke-width=".7"/></g><g class="key-United-Kingdom_0"><circle cx="283" cy="433" r="2.44" fill="#ec8e00" opacity=".8" stroke="#fff" stroke-width=".7"/></g><g class="key-France_0"><circle cx="277" cy="415" r="2.43" fill="#ec8e00" opacity=".8" stroke="#fff" stroke-width=".7"/></g><g class="key-Italy_0"><circle cx="258" cy="432" r="2.39" fill="#ec8e00" opacity=".8" stroke="#333" stroke-width=".7"/></g><g class="key-South-Africa_0"><circle cx="130" cy="189" r="2.36" fill="#5675c1" opacity=".8" stroke="#333" stroke-width=".7"/></g><g class="key-Tanzania_0"><circle cx="76" cy="210" r="2.34" fill="#5675c1" opacity=".8" stroke="#333" stroke-width=".7"/></g><g class="key-Myanmar_0"><circle cx="92" cy="219" r="2.33" fill="#d14e5b" opacity=".8" stroke="#fff" stroke-width=".7"/></g><g class="key-South-Korea_0"><circle cx="262" cy="437" r="2.31" fill="#d14e5b" opacity=".8" stroke="#fff" stroke-width=".7"/></g><g class="key-Kenya_0"><circle cx="78" cy="163" r="2.3" fill="#5675c1" opacity=".8" stroke="#fff" stroke-width=".7"/></g><g class="key-Colombia_0"><circle cx="135" cy="307" r="2.29" fill="#69c487" opacity=".8" stroke="#333" stroke-width=".7"/></g><g class="key-Spain_0"><circle cx="253" cy="430" r="2.26" fill="#ec8e00" opacity=".8" stroke="#fff" stroke-width=".7"/></g><g class="key-Ukraine_0"><circle cx="105" cy="418" r="2.24" fill="#ec8e00" opacity=".8" stroke="#333" stroke-width=".7"/></g><g class="key-Argentina_0"><circle cx="167" cy="342" r="2.24" fill="#69c487" opacity=".8" stroke="#fff" stroke-width=".7"/></g><g class="key-Algeria_0"><circle cx="139" cy="338" r="2.22" fill="#5675c1" opacity=".8" stroke="#fff" stroke-width=".7"/></g><g class="key-Uganda_0"><circle cx="71" cy="195" r="2.21" fill="#5675c1" opacity=".8" stroke="#fff" stroke-width=".7"/></g><g class="key-Sudan_0"><circle cx="86" cy="173" r="2.21" fill="#5675c1" opacity=".8" stroke="#fff" stroke-width=".7"/></g><g class="key-Poland_0"><circle cx="213" cy="452" r="2.18" fill="#ec8e00" opacity=".8" stroke="#333" stroke-width=".7"/></g><g class="key-Iraq_0"><circle cx="149" cy="293" r="2.18" fill="#d14e5b" opacity=".8" stroke="#333" stroke-width=".7"/></g><g class="key-Canada_0"><circle cx="307" cy="407" r="2.17" fill="#4d824b" opacity=".8" stroke="#fff" stroke-width=".7"/></g><g class="key-Afghanistan_0"><circle cx="71" cy="181" r="2.17" fill="#d14e5b" opacity=".8" stroke="#fff" stroke-width=".7"/></g><g class="key-Morocco_0"><circle cx="103" cy="252" r="2.16" fill="#5675c1" opacity=".8" stroke="#fff" stroke-width=".7"/></g><g class="key-Saudi-Arabia_0"><circle cx="335" cy="382" r="2.14" fill="#d14e5b" opacity=".8" stroke="#fff" stroke-width=".7"/></g><g class="key-Uzbekistan_0"><circle cx="96" cy="328" r="2.12" fill="#d14e5b" opacity=".8" stroke="#333" stroke-width=".7"/></g><g class="key-Peru_0"><circle cx="130" cy="291" r="2.12" fill="#69c487" opacity=".8" stroke="#fff" stroke-width=".7"/></g><g class="key-Malaysia_0"><circle cx="211" cy="365" r="2.12" fill="#d14e5b" opacity=".8" stroke="#fff" stroke-width=".7"/></g><g class="key-Angola_0"><circle cx="94" cy="147" r="2.1" fill="#5675c1" opacity=".8" stroke="#fff" stroke-width=".7"/></g><g class="key-Venezuela_0"><circle cx="155" cy="269" r="2.1" fill="#69c487" opacity=".8" stroke="#333" stroke-width=".7"/></g><g class="key-Ghana_0"><circle cx="85" cy="187" r="2.1" fill="#5675c1" opacity=".8" stroke="#fff" stroke-width=".7"/></g><g class="key-Mozambique_0"><circle cx="67" cy="185" r="2.09" fill="#5675c1" opacity=".8" stroke="#fff" stroke-width=".7"/></g><g class="key-Yemen_0"><circle cx="69" cy="161" r="2.08" fill="#d14e5b" opacity=".8" stroke="#fff" stroke-width=".7"/></g><g class="key-Nepal_0"><circle cx="75" cy="248" r="2.08" fill="#d14e5b" opacity=".8" stroke="#fff" stroke-width=".7"/></g><g class="key-Madagascar_0"><circle cx="69" cy="124" r="2.06" fill="#5675c1" opacity=".8" stroke="#fff" stroke-width=".7"/></g><g class="key-Australia_0"><circle cx="311" cy="420" r="2.05" fill="#a652ba" opacity=".8" stroke="#333" stroke-width=".7"/></g><g class="key-Cameroon_0"><circle cx="80" cy="150" r="2.05" fill="#5675c1" opacity=".8" stroke="#fff" stroke-width=".7"/></g><g class="key-Cote-d__0027Ivoire_0"><circle cx="81" cy="149" r="2.05" fill="#5675c1" opacity=".8" stroke="#fff" stroke-width=".7"/></g><g class="key-Niger_0"><circle cx="66" cy="117" r="2.02" fill="#5675c1" opacity=".8" stroke="#fff" stroke-width=".7"/></g><g class="key-Sri-Lanka_0"><circle cx="126" cy="414" r="2.02" fill="#d14e5b" opacity=".8" stroke="#fff" stroke-width=".7"/></g><g class="key-Romania_0"><circle cx="191" cy="342" r="2" fill="#ec8e00" opacity=".8" stroke="#333" stroke-width=".7"/></g><g class="key-Burkina-Faso_0"><circle cx="71" cy="148" r="2" fill="#5675c1" opacity=".8" stroke="#fff" stroke-width=".7"/></g><g class="key-Mali_0"><circle cx="72" cy="141" r="1.99" fill="#5675c1" opacity=".8" stroke="#fff" stroke-width=".7"/></g><g class="key-Chile_0"><circle cx="188" cy="412" r="1.99" fill="#69c487" opacity=".8" stroke="#333" stroke-width=".7"/></g><g class="key-Kazakhstan_0"><circle cx="196" cy="342" r="1.98" fill="#d14e5b" opacity=".8" stroke="#fff" stroke-width=".7"/></g><g class="key-Malawi_0"><circle cx="67" cy="185" r="1.98" fill="#5675c1" opacity=".8" stroke="#fff" stroke-width=".7"/></g><g class="key-Netherlands_0"><circle cx="332" cy="439" r="1.97" fill="#ec8e00" opacity=".8" stroke="#fff" stroke-width=".7"/></g><g class="key-Guatemala_0"><circle cx="103" cy="202" r="1.97" fill="#4d824b" opacity=".8" stroke="#fff" stroke-width=".7"/></g><g class="key-Zambia_0"><circle cx="82" cy="169" r="1.97" fill="#5675c1" opacity=".8" stroke="#fff" stroke-width=".7"/></g><g class="key-Ecuador_0"><circle cx="120" cy="293" r="1.97" fill="#69c487" opacity=".8" stroke="#fff" stroke-width=".7"/></g><g class="key-Cambodia_0"><circle cx="82" cy="266" r="1.96" fill="#d14e5b" opacity=".8" stroke="#333" stroke-width=".7"/></g><g class="key-Senegal_0"><circle cx="75" cy="164" r="1.96" fill="#5675c1" opacity=".8" stroke="#fff" stroke-width=".7"/></g><g class="key-Chad_0"><circle cx="71" cy="92" r="1.95" fill="#5675c1" opacity=".8" stroke="#333" stroke-width=".7"/></g><g class="key-Zimbabwe_0"><circle cx="72" cy="181" r="1.94" fill="#5675c1" opacity=".8" stroke="#fff" stroke-width=".7"/></g><g class="key-Guinea_0"><circle cx="72" cy="165" r="1.92" fill="#5675c1" opacity=".8" stroke="#fff" stroke-width=".7"/></g><g class="key-Rwanda_0"><circle cx="71" cy="182" r="1.92" fill="#5675c1" opacity=".8" stroke="#fff" stroke-width=".7"/></g><g class="key-Tunisia_0"><circle cx="122" cy="360" r="1.91" fill="#5675c1" opacity=".8" stroke="#333" stroke-width=".7"/></g><g class="key-Belgium_0"><circle cx="300" cy="410" r="1.91" fill="#ec8e00" opacity=".8" stroke="#fff" stroke-width=".7"/></g><g class="key-Bolivia_0"><circle cx="100" cy="267" r="1.91" fill="#69c487" opacity=".8" stroke="#fff" stroke-width=".7"/></g><g class="key-Benin_0"><circle cx="73" cy="151" r="1.91" fill="#5675c1" opacity=".8" stroke="#fff" stroke-width=".7"/></g><g class="key-Haiti_0"><circle cx="70" cy="146" r="1.91" fill="#4d824b" opacity=".8" stroke="#fff" stroke-width=".7"/></g><g class="key-South-Sudan_0"><circle cx="70" cy="110" r="1.91" fill="#5675c1" opacity=".8" stroke="#fff" stroke-width=".7"/></g><g class="key-Burundi_0"><circle cx="65" cy="157" r="1.91" fill="#5675c1" opacity=".8" stroke="#fff" stroke-width=".7"/></g><g class="key-Czech-Republic_0"><circle cx="243" cy="422" r="1.9" fill="#ec8e00" opacity=".8" stroke="#fff" stroke-width=".7"/></g><g class="key-Greece_0"><circle cx="198" cy="472" r="1.9" fill="#ec8e00" opacity=".8" stroke="#333" stroke-width=".7"/></g><g class="key-Dominican-Republic_0"><circle cx="143" cy="262" r="1.9" fill="#4d824b" opacity=".8" stroke="#fff" stroke-width=".7"/></g><g class="key-Portugal_0"><circle cx="217" cy="400" r="1.9" fill="#ec8e00" opacity=".8" stroke="#fff" stroke-width=".7"/></g><g class="key-Sweden_0"><circle cx="323" cy="440" r="1.9" fill="#ec8e00" opacity=".8" stroke="#fff" stroke-width=".7"/></g><g class="key-Azerbaijan_0"><circle cx="150" cy="260" r="1.9" fill="#d14e5b" opacity=".8" stroke="#fff" stroke-width=".7"/></g><g class="key-Jordan_0"><circle cx="108" cy="348" r="1.89" fill="#d14e5b" opacity=".8" stroke="#333" stroke-width=".7"/></g><g class="key-Hungary_0"><circle cx="211" cy="410" r="1.89" fill="#ec8e00" opacity=".8" stroke="#fff" stroke-width=".7"/></g><g class="key-United-Arab-Emirates_0"><circle cx="437" cy="382" r="1.89" fill="#d14e5b" opacity=".8" stroke="#333" stroke-width=".7"/></g><g class="key-Belarus_0"><circle cx="157" cy="464" r="1.89" fill="#ec8e00" opacity=".8" stroke="#333" stroke-width=".7"/></g><g class="key-Honduras_0"><circle cx="87" cy="251" r="1.89" fill="#4d824b" opacity=".8" stroke="#fff" stroke-width=".7"/></g><g class="key-Tajikistan_0"><circle cx="77" cy="170" r="1.88" fill="#d14e5b" opacity=".8" stroke="#fff" stroke-width=".7"/></g><g class="key-Serbia_0"><circle cx="140" cy="418" r="1.88" fill="#ec8e00" opacity=".8" stroke="#fff" stroke-width=".7"/></g><g class="key-Austria_0"><circle cx="315" cy="434" r="1.88" fill="#ec8e00" opacity=".8" stroke="#fff" stroke-width=".7"/></g><g class="key-Switzerland_0"><circle cx="382" cy="399" r="1.88" fill="#ec8e00" opacity=".8" stroke="#333" stroke-width=".7"/></g><g class="key-Papua-New-Guinea_0"><circle cx="82" cy="183" r="1.88" fill="#a652ba" opacity=".8" stroke="#fff" stroke-width=".7"/></g><g class="key-Israel_0"><circle cx="246" cy="402" r="1.88" fill="#d14e5b" opacity=".8" stroke="#333" stroke-width=".7"/></g><g class="key-Togo_0"><circle cx="69" cy="162" r="1.87" fill="#5675c1" opacity=".8" stroke="#fff" stroke-width=".7"/></g><g class="key-Sierra-Leone_0"><circle cx="69" cy="148" r="1.87" fill="#5675c1" opacity=".8" stroke="#fff" stroke-width=".7"/></g><g class="key-Bulgaria_0"><circle cx="165" cy="354" r="1.86" fill="#ec8e00" opacity=".8" stroke="#fff" stroke-width=".7"/></g><g class="key-Laos_0"><circle cx="97" cy="174" r="1.86" fill="#d14e5b" opacity=".8" stroke="#333" stroke-width=".7"/></g><g class="key-Paraguay_0"><circle cx="110" cy="300" r="1.86" fill="#69c487" opacity=".8" stroke="#fff" stroke-width=".7"/></g><g class="key-Lebanon_0"><circle cx="136" cy="339" r="1.86" fill="#d14e5b" opacity=".8" stroke="#fff" stroke-width=".7"/></g><g class="key-Libya_0"><circle cx="161" cy="343" r="1.86" fill="#5675c1" opacity=".8" stroke="#fff" stroke-width=".7"/></g><g class="key-El-Salvador_0"><circle cx="102" cy="285" r="1.86" fill="#4d824b" opacity=".8" stroke="#fff" stroke-width=".7"/></g><g class="key-Nicaragua_0"><circle cx="91" cy="280" r="1.86" fill="#4d824b" opacity=".8" stroke="#fff" stroke-width=".7"/></g><g class="key-Kyrgyzstan_0"><circle cx="80" cy="271" r="1.85" fill="#d14e5b" opacity=".8" stroke="#fff" stroke-width=".7"/></g><g class="key-Turkmenistan_0"><circle cx="153" cy="288" r="1.85" fill="#d14e5b" opacity=".8" stroke="#fff" stroke-width=".7"/></g><g class="key-Denmark_0"><circle cx="322" cy="403" r="1.85" fill="#ec8e00" opacity=".8" stroke="#333" stroke-width=".7"/></g><g class="key-Singapore_0"><circle cx="539" cy="512" r="1.85" fill="#d14e5b" opacity=".8" stroke="#333" stroke-width=".7"/></g><g class="key-Finland_0"><circle cx="288" cy="482" r="1.85" fill="#ec8e00" opacity=".8" stroke="#333" stroke-width=".7"/></g><g class="key-Slovakia_0"><circle cx="230" cy="384" r="1.85" fill="#ec8e00" opacity=".8" stroke="#fff" stroke-width=".7"/></g><g class="key-Norway_0"><circle cx="423" cy="451" r="1.84" fill="#ec8e00" opacity=".8" stroke="#333" stroke-width=".7"/></g><g class="key-Congo_0"><circle cx="88" cy="176" r="1.84" fill="#5675c1" opacity=".8" stroke="#fff" stroke-width=".7"/></g><g class="key-Costa-Rica_0"><circle cx="148" cy="351" r="1.84" fill="#4d824b" opacity=".8" stroke="#fff" stroke-width=".7"/></g><g class="key-Ireland_0"><circle cx="437" cy="429" r="1.84" fill="#ec8e00" opacity=".8" stroke="#333" stroke-width=".7"/></g><g class="key-Palestine_0"><circle cx="86" cy="354" r="1.84" fill="#d14e5b" opacity=".8" stroke="#fff" stroke-width=".7"/></g><g class="key-New-Zealand_0"><circle cx="263" cy="411" r="1.84" fill="#a652ba" opacity=".8" stroke="#fff" stroke-width=".7"/></g><g class="key-Liberia_0"><circle cx="65" cy="157" r="1.84" fill="#5675c1" opacity=".8" stroke="#fff" stroke-width=".7"/></g><g class="key-Oman_0"><circle cx="273" cy="402" r="1.84" fill="#d14e5b" opacity=".8" stroke="#fff" stroke-width=".7"/></g><g class="key-Central-African-Republic_0"><circle cx="65" cy="90" r="1.84" fill="#5675c1" opacity=".8" stroke="#fff" stroke-width=".7"/></g><g class="key-Mauritania_0"><circle cx="81" cy="177" r="1.83" fill="#5675c1" opacity=".8" stroke="#fff" stroke-width=".7"/></g><g class="key-Croatia_0"><circle cx="188" cy="405" r="1.83" fill="#ec8e00" opacity=".8" stroke="#fff" stroke-width=".7"/></g><g class="key-Panama_0"><circle cx="186" cy="255" r="1.83" fill="#4d824b" opacity=".8" stroke="#333" stroke-width=".7"/></g><g class="key-Moldova_0"><circle cx="90" cy="354" r="1.83" fill="#ec8e00" opacity=".8" stroke="#fff" stroke-width=".7"/></g><g class="key-Kuwait_0"><circle cx="427" cy="397" r="1.83" fill="#d14e5b" opacity=".8" stroke="#fff" stroke-width=".7"/></g><g class="key-Georgia_0"><circle cx="116" cy="353" r="1.83" fill="#d14e5b" opacity=".8" stroke="#fff" stroke-width=".7"/></g><g class="key-Uruguay_0"><circle cx="176" cy="343" r="1.82" fill="#69c487" opacity=".8" stroke="#fff" stroke-width=".7"/></g><g class="key-Bosnia-and-Herzegovina_0"><circle cx="127" cy="387" r="1.82" fill="#ec8e00" opacity=".8" stroke="#fff" stroke-width=".7"/></g><g class="key-Puerto-Rico_0"><circle cx="257" cy="359" r="1.82" fill="#4d824b" opacity=".8" stroke="#333" stroke-width=".7"/></g><g class="key-Mongolia_0"><circle cx="127" cy="308" r="1.82" fill="#d14e5b" opacity=".8" stroke="#fff" stroke-width=".7"/></g><g class="key-Armenia_0"><circle cx="110" cy="352" r="1.82" fill="#d14e5b" opacity=".8" stroke="#fff" stroke-width=".7"/></g><g class="key-Jamaica_0"><circle cx="107" cy="335" r="1.82" fill="#4d824b" opacity=".8" stroke="#fff" stroke-width=".7"/></g><g class="key-Albania_0"><circle cx="127" cy="388" r="1.82" fill="#ec8e00" opacity=".8" stroke="#333" stroke-width=".7"/></g><g class="key-Lithuania_0"><circle cx="226" cy="415" r="1.82" fill="#ec8e00" opacity=".8" stroke="#333" stroke-width=".7"/></g><g class="key-Qatar_0"><circle cx="715" cy="416" r="1.82" fill="#d14e5b" opacity=".8" stroke="#333" stroke-width=".7"/></g><g class="key-Namibia_0"><circle cx="114" cy="177" r="1.81" fill="#5675c1" opacity=".8" stroke="#fff" stroke-width=".7"/></g><g class="key-Gambia_0"><circle cx="70" cy="186" r="1.81" fill="#5675c1" opacity=".8" stroke="#fff" stroke-width=".7"/></g><g class="key-Botswana_0"><circle cx="149" cy="191" r="1.81" fill="#5675c1" opacity=".8" stroke="#fff" stroke-width=".7"/></g><g class="key-Lesotho_0"><circle cx="77" cy="146" r="1.81" fill="#5675c1" opacity=".8" stroke="#fff" stroke-width=".7"/></g><g class="key-Macedonia_0"><circle cx="134" cy="353" r="1.81" fill="#ec8e00" opacity=".8" stroke="#fff" stroke-width=".7"/></g><g class="key-Slovenia_0"><circle cx="237" cy="466" r="1.81" fill="#ec8e00" opacity=".8" stroke="#333" stroke-width=".7"/></g><g class="key-Gabon_0"><circle cx="154" cy="217" r="1.81" fill="#5675c1" opacity=".8" stroke="#fff" stroke-width=".7"/></g><g class="key-Latvia_0"><circle cx="201" cy="423" r="1.81" fill="#ec8e00" opacity=".8" stroke="#fff" stroke-width=".7"/></g><g class="key-Guinea__002dBissau_0"><circle cx="70" cy="140" r="1.8" fill="#5675c1" opacity=".8" stroke="#fff" stroke-width=".7"/></g><g class="key-Bahrain_0"><circle cx="303" cy="414" r="1.8" fill="#d14e5b" opacity=".8" stroke="#fff" stroke-width=".7"/></g><g class="key-Trinidad-and-Tobago_0"><circle cx="222" cy="312" r="1.8" fill="#4d824b" opacity=".8" stroke="#333" stroke-width=".7"/></g><g class="key-Estonia_0"><circle cx="226" cy="448" r="1.8" fill="#ec8e00" opacity=".8" stroke="#fff" stroke-width=".7"/></g><g class="key-Mauritius_0"><circle cx="175" cy="315" r="1.8" fill="#5675c1" opacity=".8" stroke="#fff" stroke-width=".7"/></g><g class="key-Equatorial-Guinea_0"><circle cx="187" cy="217" r="1.8" fill="#5675c1" opacity=".8" stroke="#333" stroke-width=".7"/></g><g class="key-Timor_0"><circle cx="98" cy="222" r="1.8" fill="#d14e5b" opacity=".8" stroke="#fff" stroke-width=".7"/></g><g class="key-Cyprus_0"><circle cx="242" cy="456" r="1.8" fill="#ec8e00" opacity=".8" stroke="#fff" stroke-width=".7"/></g><g class="key-Swaziland_0"><circle cx="104" cy="156" r="1.8" fill="#5675c1" opacity=".8" stroke="#fff" stroke-width=".7"/></g><g class="key-Fiji_0"><circle cx="110" cy="250" r="1.79" fill="#a652ba" opacity=".8" stroke="#fff" stroke-width=".7"/></g><g class="key-Comoros_0"><circle cx="69" cy="192" r="1.79" fill="#5675c1" opacity=".8" stroke="#fff" stroke-width=".7"/></g><g class="key-Guyana_0"><circle cx="103" cy="250" r="1.79" fill="#69c487" opacity=".8" stroke="#fff" stroke-width=".7"/></g><g class="key-Bhutan_0"><circle cx="110" cy="299" r="1.79" fill="#d14e5b" opacity=".8" stroke="#fff" stroke-width=".7"/></g><g class="key-Solomon-Islands_0"><circle cx="73" cy="262" r="1.79" fill="#a652ba" opacity=".8" stroke="#fff" stroke-width=".7"/></g><g class="key-Montenegro_0"><circle cx="153" cy="438" r="1.79" fill="#ec8e00" opacity=".8" stroke="#333" stroke-width=".7"/></g><g class="key-Luxembourg_0"><circle cx="588" cy="408" r="1.79" fill="#ec8e00" opacity=".8" stroke="#333" stroke-width=".7"/></g><g class="key-Suriname_0"><circle cx="138" cy="242" r="1.79" fill="#69c487" opacity=".8" stroke="#fff" stroke-width=".7"/></g><g class="key-Cape-Verde_0"><circle cx="96" cy="284" r="1.79" fill="#5675c1" opacity=".8" stroke="#fff" stroke-width=".7"/></g><g class="key-Maldives_0"><circle cx="146" cy="377" r="1.79" fill="#d14e5b" opacity=".8" stroke="#fff" stroke-width=".7"/></g><g class="key-Malta_0"><circle cx="265" cy="448" r="1.79" fill="#ec8e00" opacity=".8" stroke="#333" stroke-width=".7"/></g><g class="key-Brunei_0"><circle cx="462" cy="400" r="1.79" fill="#d14e5b" opacity=".8" stroke="#333" stroke-width=".7"/></g><g class="key-Bahamas_0"><circle cx="216" cy="340" r="1.79" fill="#4d824b" opacity=".8" stroke="#fff" stroke-width=".7"/></g><g class="key-Belize_0"><circle cx="105" cy="274" r="1.79" fill="#4d824b" opacity=".8" stroke="#fff" stroke-width=".7"/></g><g class="key-Iceland_0"><circle cx="321" cy="422" r="1.79" fill="#ec8e00" opacity=".8" stroke="#fff" stroke-width=".7"/></g><g class="key-Barbados_0"><circle cx="156" cy="361" r="1.79" fill="#4d824b" opacity=".8" stroke="#fff" stroke-width=".7"/></g><g class="key-Vanuatu_0"><circle cx="77" cy="253" r="1.79" fill="#a652ba" opacity=".8" stroke="#fff" stroke-width=".7"/></g><g class="key-Sao-Tome-and-Principe_0"><circle cx="78" cy="236" r="1.79" fill="#5675c1" opacity=".8" stroke="#fff" stroke-width=".7"/></g><g class="key-Samoa_0"><circle cx="95" cy="364" r="1.79" fill="#a652ba" opacity=".8" stroke="#fff" stroke-width=".7"/></g><g class="key-Saint-Lucia_0"><circle cx="134" cy="330" r="1.79" fill="#4d824b" opacity=".8" stroke="#fff" stroke-width=".7"/></g><g class="key-Kiribati_0"><circle cx="72" cy="220" r="1.78" fill="#a652ba" opacity=".8" stroke="#fff" stroke-width=".7"/></g><g class="key-Micronesia-__0028country__0029_0"><circle cx="80" cy="340" r="1.78" fill="#a652ba" opacity=".8" stroke="#fff" stroke-width=".7"/></g><g class="key-Grenada_0"><circle cx="137" cy="357" r="1.78" fill="#4d824b" opacity=".8" stroke="#fff" stroke-width=".7"/></g><g class="key-Saint-Vincent-and-the-Grenadines_0"><circle cx="121" cy="293" r="1.78" fill="#4d824b" opacity=".8" stroke="#fff" stroke-width=".7"/></g><g class="key-Tonga_0"><circle cx="91" cy="358" r="1.78" fill="#a652ba" opacity=".8" stroke="#fff" stroke-width=".7"/></g><g class="key-Seychelles_0"><circle cx="209" cy="352" r="1.78" fill="#5675c1" opacity=".8" stroke="#fff" stroke-width=".7"/></g><g class="key-Antigua-and-Barbuda_0"><circle cx="181" cy="327" r="1.78" fill="#4d824b" opacity=".8" stroke="#333" stroke-width=".7"/></g><g class="key-Dominica_0"><circle cx="115" cy="286" r="1.78" fill="#4d824b" opacity=".8" stroke="#fff" stroke-width=".7"/></g><g class="key-Bermuda_0"><circle cx="344" cy="412" r="1.78" fill="#4d824b" opacity=".8" stroke="#fff" stroke-width=".7"/></g><g class="key-Marshall-Islands_0"><circle cx="82" cy="322" r="1.78" fill="#a652ba" opacity=".8" stroke="#fff" stroke-width=".7"/></g><g class="key-South-Asia_0"><circle cx="94" cy="193" r="1.78" fill="#ffcb1f" opacity=".8" stroke="#fff" stroke-width=".7"/></g><g class="key-Sub__002dSaharan-Africa_0"><circle cx="81" cy="147" r="1.78" fill="#ffcb1f" opacity=".8" stroke="#fff" stroke-width=".7"/></g><g class="backgroundLabels" fill="#333"><text x="148" y="174.16" font-size="14.3">World</text><text x="147" y="340.09" font-size="11.62">China</text><text x="97" y="183.31" font-size="11.59">India</text><text x="358" y="368.72" font-size="11.16">North America</text><text x="124" y="209.23" font-size="11.12">Indonesia</text><text x="140" y="278.56" font-size="11.09">Brazil</text><text x="91" y="124.66" font-size="11.08">Nigeria</text><text x="81" y="251.86" font-size="11.07">Bangladesh</text><text x="200" y="386.96" font-size="11.06">Russia</text><text x="279" y="404.08" font-size="11.06">Japan</text><text x="71" y="147.24" font-size="11.05">Ethiopia</text><text x="104" y="232.25" font-size="11.05">Philippines</text><text x="96" y="372.33" font-size="11.04">Vietnam</text><text x="314" y="428.42" font-size="11.04">Germany</text><text x="66" y="159.43" font-size="11.04">Democratic Republic of Congo</text><text x="202" y="351.44" font-size="11.04">Turkey</text><text x="258" y="428.61" font-size="11.03">Italy</text><text x="130" y="185.64" font-size="11.02">South Africa</text><text x="76" y="206.66" font-size="11.02">Tanzania</text><text x="135" y="303.71" font-size="11.02">Colombia</text><text x="105" y="414.76" font-size="11.02">Ukraine</text><text x="213" y="448.82" font-size="11.02">Poland</text><text x="149" y="289.82" font-size="11.02">Iraq</text><text x="96" y="324.88" font-size="11.01">Uzbekistan</text><text x="155" y="265.9" font-size="11.01">Venezuela</text><text x="311" y="416.95" font-size="11.01">Australia</text><text x="191" y="339" font-size="11.01">Romania</text><text x="188" y="409.01" font-size="11.01">Chile</text><text x="82" y="263.04" font-size="11.01">Cambodia</text><text x="71" y="101.51" font-size="11.01">Chad</text><text x="122" y="357.09" font-size="11">Tunisia</text><text x="198" y="469.1" font-size="11">Greece</text><text x="108" y="345.11" font-size="11">Jordan</text><text x="437" y="379.11" font-size="11">United Arab Emirates</text><text x="157" y="461.11" font-size="11">Belarus</text><text x="382" y="396.12" font-size="11">Switzerland</text><text x="246" y="399.12" font-size="11">Israel</text><text x="97" y="171.14" font-size="11">Laos</text><text x="322" y="400.15" font-size="11">Denmark</text><text x="539" y="509.15" font-size="11">Singapore</text><text x="288" y="479.15" font-size="11">Finland</text><text x="423" y="448.16" font-size="11">Norway</text><text x="437" y="426.16" font-size="11">Ireland</text><text x="186" y="252.17" font-size="11">Panama</text><text x="257" y="356.18" font-size="11">Puerto Rico</text><text x="127" y="385.18" font-size="11">Albania</text><text x="226" y="412.18" font-size="11">Lithuania</text><text x="687.39" y="413.18" font-size="11">Qatar</text><text x="237" y="463.19" font-size="11">Slovenia</text><text x="222" y="309.2" font-size="11">Trinidad and Tobago</text><text x="187" y="214.2" font-size="11">Equatorial Guinea</text><text x="153" y="435.21" font-size="11">Montenegro</text><text x="588" y="405.21" font-size="11">Luxembourg</text><text x="265" y="445.21" font-size="11">Malta</text><text x="462" y="397.21" font-size="11">Brunei</text><text x="181" y="324.22" font-size="11">Antigua and Barbuda</text></g></g><g class="ScatterColorLegend clickable" cursor="pointer"><g class="legendMark">,<path fill="#5675c1" d="M735 93.5h6v6h-6z"/>,<text font-size="12.6" x="746" y="100.6"><tspan x="746" y="100.58">Africa</tspan></text></g><g class="legendMark">,<path fill="#d14e5b" d="M735 111.1h6v6h-6z"/>,<text font-size="12.6" x="746" y="118.2"><tspan x="746" y="118.18">Asia</tspan></text></g><g class="legendMark">,<path fill="#ec8e00" d="M735 128.7h6v6h-6z"/>,<text font-size="12.6" x="746" y="135.8"><tspan x="746" y="135.78">Europe</tspan></text></g><g class="legendMark">,<path fill="#4d824b" d="M735 146.3h6v6h-6z"/>,<text font-size="12.6" x="746" y="153.4"><tspan x="746" y="153.38">North America</tspan></text></g><g class="legendMark">,<path fill="#a652ba" d="M735 163.9h6v6h-6z"/>,<text font-size="12.6" x="746" y="171"><tspan x="746" y="170.98">Oceania</tspan></text></g><g class="legendMark">,<path fill="#69c487" d="M735 181.5h6v6h-6z"/>,<text font-size="12.6" x="746" y="188.6"><tspan x="746" y="188.58">South America</tspan></text></g></g></g><g class="SourcesFooter" fill="#777"><g class="clickable" fill="#777"><text font-size="12.6" x="15" y="581.6"><tspan x="15" y="581.58">Source: IHME, Global Burden of Disease; World Bank</tspan></text></g><text font-size="12.6" x="575.8" y="581.6"><tspan x="575.82" y="581.58"><a target="_blank" href="https://ourworldindata.org/causes-of-death" fill="#777">OurWorldInData.org/causes-of-death</a> • <a class="cclogo" href="http://creativecommons.org/licenses/by/4.0/deed.en_US" target="_blank" fill="#777">CC BY</a></tspan></text></g></svg>