<svg xmlns="http://www.w3.org/2000/svg" version="1.1" style="background-color:#fff;-webkit-font-smoothing:antialiased" width="850" height="600" font-family="'Helvetica Neue',Helvetica,Arial,sans-serif" font-size="18" text-rendering="optimizeLegibility"><g class="ChartTab"><g class="HeaderView"><g opacity=".8" transform="matrix(.27 0 0 .27 778 15)"><a xmlns:xlink="http://www.w3.org/1999/xlink" xlink:href="https://ourworldindata.org" target="_blank"><g><path fill="#1B2543" d="M0 0h211.2v130.1H0z"/><path fill="#E63912" d="M0 112.2h211.2v17.9H0z"/><g><path fill="none" d="M1.2 12.3h210.2v99.2H1.2z"/><path fill="#FFF" d="M37.8 32.2c0 12.7-7.7 19.4-17.1 19.4-9.7 0-16.6-7.5-16.6-18.7 0-11.7 7.3-19.3 17.1-19.3 10.1.1 16.6 7.7 16.6 18.6zm-28.6.6c0 7.9 4.3 14.9 11.8 14.9 7.5 0 11.8-6.9 11.8-15.3 0-7.3-3.8-14.9-11.8-14.9-7.9 0-11.8 7.3-11.8 15.3zM62.7 43.8c0 2.7.1 5.1.2 7.2h-4.3l-.3-4.3h-.1c-1.3 2.1-4 4.9-8.8 4.9-4.2 0-9.1-2.3-9.1-11.6V24.6h4.8v14.6c0 5 1.5 8.4 5.9 8.4 3.2 0 5.5-2.2 6.3-4.4.3-.7.4-1.6.4-2.5V24.6h4.8v19.2zM67.3 32.8c0-3.1-.1-5.8-.2-8.2h4.2l.2 5.2h.2c1.2-3.5 4.1-5.8 7.3-5.8.5 0 .9.1 1.4.2v4.5c-.5-.1-1-.2-1.6-.2-3.4 0-5.8 2.6-6.5 6.2-.1.7-.2 1.4-.2 2.2V51h-4.8V32.8zM95.4 51L86 14.2h5l4.4 18.6c1.1 4.6 2.1 9.2 2.7 12.7h.1c.6-3.7 1.8-8 3-12.8l4.9-18.5h5l4.5 18.7c1 4.4 2 8.7 2.6 12.6h.1c.8-4 1.8-8.1 3-12.7l4.9-18.5h4.9L120.6 51h-5L111 31.9c-1.1-4.7-1.9-8.3-2.4-12h-.1c-.7 3.7-1.5 7.3-2.8 12L100.4 51h-5zM154.9 37.6c0 9.8-6.8 14-13.2 14-7.2 0-12.7-5.2-12.7-13.6 0-8.8 5.8-14 13.1-14 7.7 0 12.8 5.5 12.8 13.6zm-21 .3c0 5.8 3.3 10.1 8 10.1 4.6 0 8-4.3 8-10.3 0-4.5-2.2-10.1-7.9-10.1s-8.1 5.2-8.1 10.3zM158.2 32.8c0-3.1-.1-5.8-.2-8.2h4.2l.2 5.2h.2c1.2-3.5 4.1-5.8 7.3-5.8.5 0 .9.1 1.4.2v4.5c-.5-.1-1-.2-1.6-.2-3.4 0-5.8 2.6-6.5 6.2-.1.7-.2 1.4-.2 2.2V51h-4.8V32.8zM173.5 12.3h4.8V51h-4.8V12.3zM206.5 12.3v31.9c0 2.3.1 5 .2 6.8h-4.3l-.2-4.6h-.2c-1.5 2.9-4.7 5.2-9 5.2-6.4 0-11.3-5.4-11.3-13.4-.1-8.8 5.4-14.2 11.9-14.2 4 0 6.8 1.9 8 4h.1V12.3h4.8zm-4.8 23.1c0-.6-.1-1.4-.2-2a7 7 0 00-6.9-5.6c-5 0-7.9 4.4-7.9 10.2 0 5.3 2.6 9.8 7.8 9.8 3.2 0 6.2-2.1 7.1-5.7.2-.7.2-1.3.2-2.1v-4.6zM42.8 64c.1 1.6-1.1 2.9-3.1 2.9-1.7 0-2.9-1.3-2.9-2.9 0-1.7 1.3-3 3-3 1.9 0 3 1.3 3 3zm-5.4 33.8V71.4h4.8v26.4h-4.8zM47.5 78.6c0-2.7-.1-5-.2-7.1h4.3l.3 4.4h.1c1.3-2.5 4.4-5 8.8-5 3.7 0 9.4 2.2 9.4 11.2v15.8h-4.8V82.6c0-4.3-1.6-7.8-6.1-7.8-3.2 0-5.6 2.2-6.5 4.9-.2.6-.3 1.4-.3 2.2v15.9h-4.8V78.6zM84 61.6c2.9-.4 6.3-.8 10.1-.8 6.8 0 11.7 1.6 14.9 4.6 3.3 3 5.2 7.3 5.2 13.2 0 6-1.9 10.9-5.3 14.3-3.4 3.4-9.1 5.3-16.3 5.3-3.4 0-6.2-.2-8.6-.4V61.6zm4.8 32.5c1.2.2 3 .3 4.8.3 10.2 0 15.7-5.7 15.7-15.6.1-8.7-4.9-14.2-14.9-14.2-2.5 0-4.3.2-5.6.5v29zM132.1 97.8l-.4-3.3h-.2a9.79 9.79 0 01-8.1 3.9c-5.4 0-8.1-3.8-8.1-7.6 0-6.4 5.7-9.9 15.9-9.8v-.5c0-2.2-.6-6.1-6-6.1-2.5 0-5 .8-6.9 2l-1.1-3.2c2.2-1.4 5.4-2.3 8.7-2.3 8.1 0 10.1 5.5 10.1 10.8v9.9c0 2.3.1 4.5.4 6.3h-4.3zm-.7-13.4c-5.3-.1-11.2.8-11.2 5.9 0 3.1 2.1 4.6 4.5 4.6 3.4 0 5.6-2.2 6.4-4.4.2-.5.3-1 .3-1.5v-4.6zM146.6 63.9v7.6h6.9v3.7h-6.9v14.2c0 3.3.9 5.1 3.6 5.1 1.3 0 2.2-.2 2.8-.3l.2 3.6c-.9.4-2.4.7-4.3.7-2.2 0-4-.7-5.2-2-1.4-1.4-1.9-3.8-1.9-6.9V75.1h-4.1v-3.7h4.1v-6.3l4.8-1.2zM171.4 97.8l-.4-3.3h-.2a9.79 9.79 0 01-8.1 3.9c-5.4 0-8.1-3.8-8.1-7.6 0-6.4 5.7-9.9 15.9-9.8v-.5c0-2.2-.6-6.1-6-6.1-2.5 0-5 .8-6.9 2l-1.1-3.2c2.2-1.4 5.4-2.3 8.7-2.3 8.1 0 10.1 5.5 10.1 10.8v9.9c0 2.3.1 4.5.4 6.3h-4.3zm-.7-13.4c-5.3-.1-11.2.8-11.2 5.9 0 3.1 2.1 4.6 4.5 4.6 3.4 0 5.6-2.2 6.4-4.4.2-.5.3-1 .3-1.5v-4.6z"/></g></g></a></g><a href="https://ourworldindata.org/grapher/global-child-mortality-timeseries" target="_blank"><text font-size="25.2" x="15" y="35.2" fill="#555"><tspan x="15" y="35.16">Global child mortality</tspan></text></a><text font-size="14.4" x="15" y="53.7" fill="#666"><tspan x="15" y="53.72">Share of the world population dying and surviving the first 5 years of life.</tspan></text></g><g class="StackedArea"><defs><clipPath id="a"><path d="M61.63 0h820v959.8h-820z"/></clipPath></defs><g class="AxisBoxView"><g class="HorizontalAxis" fill="#666" text-anchor="middle" font-size="16.2"><text x="61.6" y="556.5">1800</text><text x="205.9" y="556.5">1850</text><text x="350.2" y="556.5">1900</text><text x="494.5" y="556.5">1950</text><text x="638.8" y="556.5">2000</text><text x="687.8" y="556.5">2017</text></g><g class="VerticalAxis" fill="#666" dominant-baseline="middle" text-anchor="end" font-size="16.2"><text x="56.63" y="535.3">0%</text><text x="56.63" y="443.8">20%</text><text x="56.63" y="352.3">40%</text><text x="56.63" y="260.8">60%</text><text x="56.63" y="169.4">80%</text><text x="56.63" y="77.9">100%</text></g><g class="AxisGridLines"><path stroke="#ccc" d="M61.63 535.3h626.19"/><path stroke="#ddd" stroke-dasharray="3,2" d="M61.63 443.8h626.19M61.63 352.3h626.19M61.63 260.8h626.19M61.63 169.4h626.19M61.63 77.9h626.19"/></g></g><g clip-path="url(#a)"><g class="HeightedLegend clickable"><g class="legendMark"><text font-size="13.5" x="692.8" y="294.4" fill="#2a939b"><tspan x="692.82" y="294.35">Share surviving</tspan><tspan x="692.82" y="309.2">first 5 years of life</tspan></text></g><g class="legendMark"><text font-size="13.5" x="692.8" y="523.1" fill="#e6332e"><tspan x="692.82" y="523.15">Share dying in first</tspan><tspan x="692.82" y="538">5 years</tspan></text></g></g><g class="Areas"><path class="World_1-area" d="M61.6 337.2l57.7 2.8 57.8 10.5 57.7-4.6 57.7 15.6 57.7 8.2 57.7 18.8 57.7 37.5 57.7 24.7 2.9 2.1 2.9 1.5 2.9 1.4 2.9-.5 2.9 1.1 2.8.7 2.9 1 2.9 2.4 2.9 6.4 2.9 2.2 2.9 1.6 2.9 1.4 2.8 1.5 2.9 1.4 2.9 1.2 2.9 1.3 2.9 1.2 2.9 1.2 2.9 1.1 2.8 1.2 2.9 1.4 2.9 1.3 2.9 1.4 2.9 1.5 2.9 1.3 2.9 1.2 2.8 1.1 2.9 1 5.8.4 2.9.5 2.9.6 2.9.5 2.8.5 2.9.7 2.9.7 2.9.8 2.9.9 2.9 1 2.9 1.1 2.8 1.2 2.9 1.3 2.9 1.2 2.9 1.2 2.9 1.4 2.9 1.1 2.9 1.2 2.8 1.1 2.9 1.1 2.9.9 2.9 1.1 2.9 1 2.9.8 2.9.8 2.8.7 2.9.7 2.9.6.02 17.9H61.63" fill="#e6332e" fill-opacity=".7"/><path class="World_0-area" d="M61.6 77.9H604.1l5.8-1.2 2.9-.1 2.9.1 2.9.1 2.8.1 2.9.2 2.9.1 2.9.1h8.7l2.8.1h8.7l2.9.1h2.9l2.9.2 2.8.1 2.9.1 2.9.1h5.8l2.9.1h2.9l2.8.1 2.9-.3h2.9v439.5l-2.9-.6-2.9-.7-2.8-.7-2.9-.8-2.9-.8-2.9-1-2.9-1.1-2.9-.9-2.9-1.1-2.8-1.1-2.9-1.2-2.9-1.1-2.9-1.4-2.9-1.2-2.9-1.2-2.9-1.3-2.8-1.2-2.9-1.1-2.9-1-2.9-.9-2.9-.8-2.9-.7-2.9-.7-2.8-.5-2.9-.5-2.9-.6-2.9-.5-5.8-.4-2.9-1-2.8-1.1-2.9-1.2-2.9-1.3-2.9-1.5-2.9-1.4-2.9-1.3-2.9-1.4-2.8-1.2-2.9-1.1-2.9-1.2-2.9-1.2-2.9-1.3-2.9-1.2-2.9-1.4-2.8-1.5-2.9-1.4-2.9-1.6-2.9-2.2-2.9-6.4-2.9-2.4-2.9-1-2.8-.7-2.9-1.1-2.9.5-2.9-1.4-2.9-1.5-2.9-2.1-57.7-24.7-57.7-37.5-57.7-18.8-57.7-8.2-57.7-15.6-57.7 4.6-57.8-10.5-57.7-2.8" fill="#2a939b" fill-opacity=".7"/><path class="World_1-border" stroke-linecap="round" d="M61.6 337.2l57.7 2.8 57.8 10.5 57.7-4.6 57.7 15.6 57.7 8.2 57.7 18.8 57.7 37.5 57.7 24.7 2.9 2.1 2.9 1.5 2.9 1.4 2.9-.5 2.9 1.1 2.8.7 2.9 1 2.9 2.4 2.9 6.4 2.9 2.2 2.9 1.6 2.9 1.4 2.8 1.5 2.9 1.4 2.9 1.2 2.9 1.3 2.9 1.2 2.9 1.2 2.9 1.1 2.8 1.2 2.9 1.4 2.9 1.3 2.9 1.4 2.9 1.5 2.9 1.3 2.9 1.2 2.8 1.1 2.9 1 5.8.4 2.9.5 2.9.6 2.9.5 2.8.5 2.9.7 2.9.7 2.9.8 2.9.9 2.9 1 2.9 1.1 2.8 1.2 2.9 1.3 2.9 1.2 2.9 1.2 2.9 1.4 2.9 1.1 2.9 1.2 2.8 1.1 2.9 1.1 2.9.9 2.9 1.1 2.9 1 2.9.8 2.9.8 2.8.7 2.9.7 2.9.6" stroke="#C02B26" stroke-opacity=".7" stroke-width=".5" fill="none"/><path class="World_0-border" stroke-linecap="round" d="M61.6 77.9H604.1l5.8-1.2 2.9-.1 2.9.1 2.9.1 2.8.1 2.9.2 2.9.1 2.9.1h8.7l2.8.1h8.7l2.9.1h2.9l2.9.2 2.8.1 2.9.1 2.9.1h5.8l2.9.1h2.9l2.8.1 2.9-.3h2.9" stroke="#237B82" stroke-opacity=".7" stroke-width=".5" fill="none"/></g></g></g><g class="SourcesFooter" fill="#777"><g class="clickable" fill="#777"><text font-size="12.6" x="15" y="581.6"><tspan x="15" y="581.58">Source: Gapminder and the World Bank</tspan></text></g><text font-size="12.6" x="383.2" y="581.6"><tspan x="383.16" y="581.58"><a target="_blank" href="https://ourworldindata.org/a-history-of-global-living-conditions-in-5-charts/" fill="#777">OurWorldInData.org/a-history-of-global-living-conditions-in-5-charts/</a> • <a class="cclogo" href="http://creativecommons.org/licenses/by-sa/4.0/deed.en_US" target="_blank" fill="#777">CC BY-SA</a></tspan></text></g></g></svg>