<svg xmlns="http://www.w3.org/2000/svg" version="1.1" style="background-color:#fff;-webkit-font-smoothing:antialiased" width="850" height="600" font-family="'Helvetica Neue',Helvetica,Arial,sans-serif" font-size="18" text-rendering="optimizeLegibility"><g class="ChartTab"><g class="HeaderView"><g opacity=".8" transform="matrix(.27 0 0 .27 778 15)"><a xmlns:xlink="http://www.w3.org/1999/xlink" xlink:href="https://ourworldindata.org" target="_blank"><g><path fill="#1B2543" d="M0 0h211.2v130.1H0z"/><path fill="#E63912" d="M0 112.2h211.2v17.9H0z"/><g><path fill="none" d="M1.2 12.3h210.2v99.2H1.2z"/><path fill="#FFF" d="M37.8 32.2c0 12.7-7.7 19.4-17.1 19.4-9.7 0-16.6-7.5-16.6-18.7 0-11.7 7.3-19.3 17.1-19.3 10.1.1 16.6 7.7 16.6 18.6zm-28.6.6c0 7.9 4.3 14.9 11.8 14.9 7.5 0 11.8-6.9 11.8-15.3 0-7.3-3.8-14.9-11.8-14.9-7.9 0-11.8 7.3-11.8 15.3zM62.7 43.8c0 2.7.1 5.1.2 7.2h-4.3l-.3-4.3h-.1c-1.3 2.1-4 4.9-8.8 4.9-4.2 0-9.1-2.3-9.1-11.6V24.6h4.8v14.6c0 5 1.5 8.4 5.9 8.4 3.2 0 5.5-2.2 6.3-4.4.3-.7.4-1.6.4-2.5V24.6h4.8v19.2zM67.3 32.8c0-3.1-.1-5.8-.2-8.2h4.2l.2 5.2h.2c1.2-3.5 4.1-5.8 7.3-5.8.5 0 .9.1 1.4.2v4.5c-.5-.1-1-.2-1.6-.2-3.4 0-5.8 2.6-6.5 6.2-.1.7-.2 1.4-.2 2.2V51h-4.8V32.8zM95.4 51L86 14.2h5l4.4 18.6c1.1 4.6 2.1 9.2 2.7 12.7h.1c.6-3.7 1.8-8 3-12.8l4.9-18.5h5l4.5 18.7c1 4.4 2 8.7 2.6 12.6h.1c.8-4 1.8-8.1 3-12.7l4.9-18.5h4.9L120.6 51h-5L111 31.9c-1.1-4.7-1.9-8.3-2.4-12h-.1c-.7 3.7-1.5 7.3-2.8 12L100.4 51h-5zM154.9 37.6c0 9.8-6.8 14-13.2 14-7.2 0-12.7-5.2-12.7-13.6 0-8.8 5.8-14 13.1-14 7.7 0 12.8 5.5 12.8 13.6zm-21 .3c0 5.8 3.3 10.1 8 10.1 4.6 0 8-4.3 8-10.3 0-4.5-2.2-10.1-7.9-10.1s-8.1 5.2-8.1 10.3zM158.2 32.8c0-3.1-.1-5.8-.2-8.2h4.2l.2 5.2h.2c1.2-3.5 4.1-5.8 7.3-5.8.5 0 .9.1 1.4.2v4.5c-.5-.1-1-.2-1.6-.2-3.4 0-5.8 2.6-6.5 6.2-.1.7-.2 1.4-.2 2.2V51h-4.8V32.8zM173.5 12.3h4.8V51h-4.8V12.3zM206.5 12.3v31.9c0 2.3.1 5 .2 6.8h-4.3l-.2-4.6h-.2c-1.5 2.9-4.7 5.2-9 5.2-6.4 0-11.3-5.4-11.3-13.4-.1-8.8 5.4-14.2 11.9-14.2 4 0 6.8 1.9 8 4h.1V12.3h4.8zm-4.8 23.1c0-.6-.1-1.4-.2-2a7 7 0 00-6.9-5.6c-5 0-7.9 4.4-7.9 10.2 0 5.3 2.6 9.8 7.8 9.8 3.2 0 6.2-2.1 7.1-5.7.2-.7.2-1.3.2-2.1v-4.6zM42.8 64c.1 1.6-1.1 2.9-3.1 2.9-1.7 0-2.9-1.3-2.9-2.9 0-1.7 1.3-3 3-3 1.9 0 3 1.3 3 3zm-5.4 33.8V71.4h4.8v26.4h-4.8zM47.5 78.6c0-2.7-.1-5-.2-7.1h4.3l.3 4.4h.1c1.3-2.5 4.4-5 8.8-5 3.7 0 9.4 2.2 9.4 11.2v15.8h-4.8V82.6c0-4.3-1.6-7.8-6.1-7.8-3.2 0-5.6 2.2-6.5 4.9-.2.6-.3 1.4-.3 2.2v15.9h-4.8V78.6zM84 61.6c2.9-.4 6.3-.8 10.1-.8 6.8 0 11.7 1.6 14.9 4.6 3.3 3 5.2 7.3 5.2 13.2 0 6-1.9 10.9-5.3 14.3-3.4 3.4-9.1 5.3-16.3 5.3-3.4 0-6.2-.2-8.6-.4V61.6zm4.8 32.5c1.2.2 3 .3 4.8.3 10.2 0 15.7-5.7 15.7-15.6.1-8.7-4.9-14.2-14.9-14.2-2.5 0-4.3.2-5.6.5v29zM132.1 97.8l-.4-3.3h-.2a9.79 9.79 0 01-8.1 3.9c-5.4 0-8.1-3.8-8.1-7.6 0-6.4 5.7-9.9 15.9-9.8v-.5c0-2.2-.6-6.1-6-6.1-2.5 0-5 .8-6.9 2l-1.1-3.2c2.2-1.4 5.4-2.3 8.7-2.3 8.1 0 10.1 5.5 10.1 10.8v9.9c0 2.3.1 4.5.4 6.3h-4.3zm-.7-13.4c-5.3-.1-11.2.8-11.2 5.9 0 3.1 2.1 4.6 4.5 4.6 3.4 0 5.6-2.2 6.4-4.4.2-.5.3-1 .3-1.5v-4.6zM146.6 63.9v7.6h6.9v3.7h-6.9v14.2c0 3.3.9 5.1 3.6 5.1 1.3 0 2.2-.2 2.8-.3l.2 3.6c-.9.4-2.4.7-4.3.7-2.2 0-4-.7-5.2-2-1.4-1.4-1.9-3.8-1.9-6.9V75.1h-4.1v-3.7h4.1v-6.3l4.8-1.2zM171.4 97.8l-.4-3.3h-.2a9.79 9.79 0 01-8.1 3.9c-5.4 0-8.1-3.8-8.1-7.6 0-6.4 5.7-9.9 15.9-9.8v-.5c0-2.2-.6-6.1-6-6.1-2.5 0-5 .8-6.9 2l-1.1-3.2c2.2-1.4 5.4-2.3 8.7-2.3 8.1 0 10.1 5.5 10.1 10.8v9.9c0 2.3.1 4.5.4 6.3h-4.3zm-.7-13.4c-5.3-.1-11.2.8-11.2 5.9 0 3.1 2.1 4.6 4.5 4.6 3.4 0 5.6-2.2 6.4-4.4.2-.5.3-1 .3-1.5v-4.6z"/></g></g></a></g><a href="https://ourworldindata.org/grapher/poverty-and-child-mortality" target="_blank"><text font-size="25.2" x="15" y="35.2" fill="#555"><tspan x="15" y="35.16">Extreme poverty and child mortality, 2017</tspan></text></a><text font-size="14.4" x="15" y="53.7" fill="#666"><tspan x="15" y="53.72">The child mortality rate measures the share of children that die before reaching the age of 5.</tspan></text></g><g><g class="AxisBoxView"><g class="HorizontalAxis"><text font-size="12.6" x="174" y="554"><tspan x="173.98" y="553.98">Share of the population in extreme poverty (less than 1,90$ per day)</tspan></text><text x="75.2" y="533.9" fill="#666" text-anchor="middle" font-size="16.2">0%</text><text x="157.6" y="533.9" fill="#666" text-anchor="middle" font-size="16.2">10%</text><text x="240.1" y="533.9" fill="#666" text-anchor="middle" font-size="16.2">20%</text><text x="322.5" y="533.9" fill="#666" text-anchor="middle" font-size="16.2">30%</text><text x="405" y="533.9" fill="#666" text-anchor="middle" font-size="16.2">40%</text><text x="487.4" y="533.9" fill="#666" text-anchor="middle" font-size="16.2">50%</text><text x="569.9" y="533.9" fill="#666" text-anchor="middle" font-size="16.2">60%</text><text x="652.3" y="533.9" fill="#666" text-anchor="middle" font-size="16.2">70%</text></g><g class="VerticalAxis"><text font-size="12.6" x="-370.9" y="25.1" transform="rotate(-90)"><tspan x="-370.92" y="25.08">Child mortality rate</tspan></text><text x="70.16" y="335.7" fill="#666" dominant-baseline="middle" text-anchor="end" font-size="16.2">1%</text><text x="70.16" y="74.7" fill="#666" dominant-baseline="middle" text-anchor="end" font-size="16.2">10%</text></g><g class="AxisGridLines" stroke="#ddd" stroke-dasharray="3,2"><path d="M75.16 335.7H715M75.16 74.7H715"/></g><g class="AxisGridLines"><path stroke="#ccc" d="M75.2 512.7V76.6"/><path stroke="#ddd" stroke-dasharray="3,2" d="M157.6 512.7V76.6M240.1 512.7V76.6M322.5 512.7V76.6M405 512.7V76.6M487.4 512.7V76.6M569.9 512.7V76.6M652.3 512.7V76.6"/></g></g><g clip-path="url(#a)" font-family="Arial Narrow, Arial, sans-serif" class="PointsWithLabels clickable"><path fill="rgba(255,255,255,0)" d="M75.16 76.6H715v436.1H75.16z"/><defs><clipPath id="a"><path d="M65.16 66.6H725v456.1H65.16z"/></clipPath></defs><g class="key-China_0"><circle cx="80" cy="344" r="17.84" fill="#d14e5b" opacity=".8" stroke="#333" stroke-width=".7"/></g><g class="key-United-States_0"><circle cx="85" cy="382" r="8.78" fill="#4d824b" opacity=".8" stroke="#333" stroke-width=".7"/></g><g class="key-Indonesia_0"><circle cx="122" cy="230" r="7.78" fill="#d14e5b" opacity=".8" stroke="#333" stroke-width=".7"/></g><g class="key-Brazil_0"><circle cx="103" cy="291" r="7.04" fill="#69c487" opacity=".8" stroke="#333" stroke-width=".7"/></g><g class="key-Pakistan_0"><circle cx="108" cy="107" r="6.76" fill="#d14e5b" opacity=".8" stroke="#333" stroke-width=".7"/></g><g class="key-Bangladesh_0"><circle cx="197" cy="202" r="6.24" fill="#d14e5b" opacity=".8" stroke="#333" stroke-width=".7"/></g><g class="key-Mexico_0"><circle cx="95" cy="302" r="5.51" fill="#4d824b" opacity=".8" stroke="#333" stroke-width=".7"/></g><g class="key-Vietnam_0"><circle cx="91" cy="252" r="4.92" fill="#d14e5b" opacity=".8" stroke="#333" stroke-width=".7"/></g><g class="key-Ethiopia_0"><circle cx="295" cy="135" r="4.86" fill="#5675c1" opacity=".8" stroke="#333" stroke-width=".7"/></g><g class="key-Egypt_0"><circle cx="85" cy="245" r="4.79" fill="#5675c1" opacity=".8" stroke="#fff" stroke-width=".7"/></g><g class="key-Germany_0"><circle cx="75" cy="448" r="4.71" fill="#ffd336" opacity=".8" stroke="#333" stroke-width=".7"/></g><g class="key-Iran_0"><circle cx="76" cy="290" r="4.57" fill="#d14e5b" opacity=".8" stroke="#fff" stroke-width=".7"/></g><g class="key-Turkey_0"><circle cx="76" cy="318" r="4.54" fill="#d14e5b" opacity=".8" stroke="#fff" stroke-width=".7"/></g><g class="key-Democratic-Republic-of-Congo_0"><circle cx="710" cy="85" r="4.44" fill="#5675c1" opacity=".8" stroke="#333" stroke-width=".7"/></g><g class="key-Thailand_0"><circle cx="75" cy="341" r="4.41" fill="#d14e5b" opacity=".8" stroke="#fff" stroke-width=".7"/></g><g class="key-France_0"><circle cx="75" cy="434" r="4.24" fill="#ffd336" opacity=".8" stroke="#333" stroke-width=".7"/></g><g class="key-United-Kingdom_0"><circle cx="76" cy="431" r="4.22" fill="#ffd336" opacity=".8" stroke="#fff" stroke-width=".7"/></g><g class="key-Italy_0"><circle cx="91" cy="458" r="4.16" fill="#ffd336" opacity=".8" stroke="#fff" stroke-width=".7"/></g><g class="key-South-Africa_0"><circle cx="231" cy="187" r="3.87" fill="#5675c1" opacity=".8" stroke="#333" stroke-width=".7"/></g><g class="key-Myanmar_0"><circle cx="127" cy="156" r="3.82" fill="#d14e5b" opacity=".8" stroke="#333" stroke-width=".7"/></g><g class="key-South-Korea_0"><circle cx="76" cy="461" r="3.81" fill="#d14e5b" opacity=".8" stroke="#333" stroke-width=".7"/></g><g class="key-Colombia_0"><circle cx="112" cy="292" r="3.79" fill="#69c487" opacity=".8" stroke="#fff" stroke-width=".7"/></g><g class="key-Spain_0"><circle cx="83" cy="468" r="3.75" fill="#ffd336" opacity=".8" stroke="#fff" stroke-width=".7"/></g><g class="key-Ukraine_0"><circle cx="76" cy="350" r="3.68" fill="#ffd336" opacity=".8" stroke="#333" stroke-width=".7"/></g><g class="key-Kenya_0"><circle cx="378" cy="163" r="3.66" fill="#5675c1" opacity=".8" stroke="#333" stroke-width=".7"/></g><g class="key-Argentina_0"><circle cx="80" cy="331" r="3.58" fill="#69c487" opacity=".8" stroke="#fff" stroke-width=".7"/></g><g class="key-Uganda_0"><circle cx="418" cy="155" r="3.42" fill="#5675c1" opacity=".8" stroke="#333" stroke-width=".7"/></g><g class="key-Canada_0"><circle cx="79" cy="412" r="3.36" fill="#4d824b" opacity=".8" stroke="#333" stroke-width=".7"/></g><g class="key-Iraq_0"><circle cx="95" cy="209" r="3.35" fill="#d14e5b" opacity=".8" stroke="#333" stroke-width=".7"/></g><g class="key-Morocco_0"><circle cx="83" cy="239" r="3.29" fill="#5675c1" opacity=".8" stroke="#333" stroke-width=".7"/></g><g class="key-Peru_0"><circle cx="104" cy="289" r="3.19" fill="#69c487" opacity=".8" stroke="#fff" stroke-width=".7"/></g><g class="key-Malaysia_0"><circle cx="75" cy="362" r="3.18" fill="#d14e5b" opacity=".8" stroke="#333" stroke-width=".7"/></g><g class="key-Ghana_0"><circle cx="174" cy="154" r="3.04" fill="#5675c1" opacity=".8" stroke="#333" stroke-width=".7"/></g><g class="key-Mozambique_0"><circle cx="593" cy="111" r="3" fill="#5675c1" opacity=".8" stroke="#333" stroke-width=".7"/></g><g class="key-Madagascar_0"><circle cx="715" cy="167" r="2.9" fill="#5675c1" opacity=".8" stroke="#333" stroke-width=".7"/></g><g class="key-Sri-Lanka_0"><circle cx="80" cy="350" r="2.85" fill="#d14e5b" opacity=".8" stroke="#fff" stroke-width=".7"/></g><g class="key-Romania_0"><circle cx="122" cy="363" r="2.85" fill="#ffd336" opacity=".8" stroke="#333" stroke-width=".7"/></g><g class="key-Cote-d__0027Ivoire_0"><circle cx="307" cy="88" r="2.84" fill="#5675c1" opacity=".8" stroke="#333" stroke-width=".7"/></g><g class="key-Cameroon_0"><circle cx="271" cy="94" r="2.83" fill="#5675c1" opacity=".8" stroke="#fff" stroke-width=".7"/></g><g class="key-Burkina-Faso_0"><circle cx="435" cy="98" r="2.71" fill="#5675c1" opacity=".8" stroke="#333" stroke-width=".7"/></g><g class="key-Chile_0"><circle cx="85" cy="369" r="2.69" fill="#69c487" opacity=".8" stroke="#fff" stroke-width=".7"/></g><g class="key-Niger_0"><circle cx="442" cy="93" r="2.68" fill="#5675c1" opacity=".8" stroke="#fff" stroke-width=".7"/></g><g class="key-Netherlands_0"><circle cx="75" cy="442" r="2.66" fill="#ffd336" opacity=".8" stroke="#fff" stroke-width=".7"/></g><g class="key-Kazakhstan_0"><circle cx="75" cy="335" r="2.65" fill="#d14e5b" opacity=".8" stroke="#fff" stroke-width=".7"/></g><g class="key-Guatemala_0"><circle cx="146" cy="220" r="2.6" fill="#4d824b" opacity=".8" stroke="#fff" stroke-width=".7"/></g><g class="key-Ecuador_0"><circle cx="104" cy="293" r="2.58" fill="#69c487" opacity=".8" stroke="#fff" stroke-width=".7"/></g><g class="key-Zambia_0"><circle cx="549" cy="132" r="2.55" fill="#5675c1" opacity=".8" stroke="#333" stroke-width=".7"/></g><g class="key-Rwanda_0"><circle cx="536" cy="184" r="2.42" fill="#5675c1" opacity=".8" stroke="#333" stroke-width=".7"/></g><g class="key-Greece_0"><circle cx="87" cy="407" r="2.42" fill="#ffd336" opacity=".8" stroke="#fff" stroke-width=".7"/></g><g class="key-Belgium_0"><circle cx="75" cy="445" r="2.38" fill="#ffd336" opacity=".8" stroke="#fff" stroke-width=".7"/></g><g class="key-Guinea_0"><circle cx="366" cy="92" r="2.38" fill="#5675c1" opacity=".8" stroke="#fff" stroke-width=".7"/></g><g class="key-Portugal_0"><circle cx="79" cy="448" r="2.38" fill="#ffd336" opacity=".8" stroke="#fff" stroke-width=".7"/></g><g class="key-Czech-Republic_0"><circle cx="75" cy="461" r="2.37" fill="#ffd336" opacity=".8" stroke="#fff" stroke-width=".7"/></g><g class="key-Bolivia_0"><circle cx="133" cy="194" r="2.37" fill="#69c487" opacity=".8" stroke="#333" stroke-width=".7"/></g><g class="key-Haiti_0"><circle cx="268" cy="112" r="2.36" fill="#4d824b" opacity=".8" stroke="#333" stroke-width=".7"/></g><g class="key-Dominican-Republic_0"><circle cx="88" cy="211" r="2.36" fill="#4d824b" opacity=".8" stroke="#fff" stroke-width=".7"/></g><g class="key-Hungary_0"><circle cx="79" cy="426" r="2.34" fill="#ffd336" opacity=".8" stroke="#fff" stroke-width=".7"/></g><g class="key-Benin_0"><circle cx="484" cy="76" r="2.33" fill="#5675c1" opacity=".8" stroke="#fff" stroke-width=".7"/></g><g class="key-Sweden_0"><circle cx="79" cy="480" r="2.32" fill="#ffd336" opacity=".8" stroke="#333" stroke-width=".7"/></g><g class="key-Belarus_0"><circle cx="75" cy="448" r="2.32" fill="#ffd336" opacity=".8" stroke="#fff" stroke-width=".7"/></g><g class="key-Burundi_0"><circle cx="666" cy="130" r="2.29" fill="#5675c1" opacity=".8" stroke="#333" stroke-width=".7"/></g><g class="key-Austria_0"><circle cx="80" cy="451" r="2.27" fill="#ffd336" opacity=".8" stroke="#fff" stroke-width=".7"/></g><g class="key-Honduras_0"><circle cx="207" cy="267" r="2.25" fill="#4d824b" opacity=".8" stroke="#333" stroke-width=".7"/></g><g class="key-Israel_0"><circle cx="79" cy="451" r="2.23" fill="#d14e5b" opacity=".8" stroke="#fff" stroke-width=".7"/></g><g class="key-Switzerland_0"><circle cx="75" cy="434" r="2.23" fill="#ffd336" opacity=".8" stroke="#fff" stroke-width=".7"/></g><g class="key-Bulgaria_0"><circle cx="87" cy="368" r="2.21" fill="#ffd336" opacity=".8" stroke="#fff" stroke-width=".7"/></g><g class="key-Tajikistan_0"><circle cx="114" cy="198" r="2.2" fill="#d14e5b" opacity=".8" stroke="#fff" stroke-width=".7"/></g><g class="key-Paraguay_0"><circle cx="89" cy="251" r="2.18" fill="#69c487" opacity=".8" stroke="#fff" stroke-width=".7"/></g><g class="key-Laos_0"><circle cx="262" cy="126" r="2.16" fill="#d14e5b" opacity=".8" stroke="#333" stroke-width=".7"/></g><g class="key-Togo_0"><circle cx="480" cy="110" r="2.16" fill="#5675c1" opacity=".8" stroke="#333" stroke-width=".7"/></g><g class="key-El-Salvador_0"><circle cx="93" cy="293" r="2.15" fill="#4d824b" opacity=".8" stroke="#fff" stroke-width=".7"/></g><g class="key-Nicaragua_0"><circle cx="101" cy="274" r="2.14" fill="#4d824b" opacity=".8" stroke="#333" stroke-width=".7"/></g><g class="key-Denmark_0"><circle cx="76" cy="431" r="2.12" fill="#ffd336" opacity=".8" stroke="#fff" stroke-width=".7"/></g><g class="key-Kyrgyzstan_0"><circle cx="86" cy="257" r="2.11" fill="#d14e5b" opacity=".8" stroke="#fff" stroke-width=".7"/></g><g class="key-Finland_0"><circle cx="75" cy="502" r="2.11" fill="#ffd336" opacity=".8" stroke="#333" stroke-width=".7"/></g><g class="key-Norway_0"><circle cx="76" cy="488" r="2.08" fill="#ffd336" opacity=".8" stroke="#fff" stroke-width=".7"/></g><g class="key-Costa-Rica_0"><circle cx="85" cy="347" r="2.08" fill="#4d824b" opacity=".8" stroke="#fff" stroke-width=".7"/></g><g class="key-Ireland_0"><circle cx="76" cy="454" r="2.06" fill="#ffd336" opacity=".8" stroke="#fff" stroke-width=".7"/></g><g class="key-Croatia_0"><circle cx="80" cy="423" r="2.05" fill="#ffd336" opacity=".8" stroke="#fff" stroke-width=".7"/></g><g class="key-Liberia_0"><circle cx="393" cy="107" r="2.05" fill="#5675c1" opacity=".8" stroke="#333" stroke-width=".7"/></g><g class="key-Georgia_0"><circle cx="109" cy="327" r="2.04" fill="#d14e5b" opacity=".8" stroke="#fff" stroke-width=".7"/></g><g class="key-Bosnia-and-Herzegovina_0"><circle cx="76" cy="399" r="2.01" fill="#ffd336" opacity=".8" stroke="#333" stroke-width=".7"/></g><g class="key-Mauritania_0"><circle cx="124" cy="101" r="2.01" fill="#5675c1" opacity=".8" stroke="#fff" stroke-width=".7"/></g><g class="key-Panama_0"><circle cx="93" cy="281" r="2.01" fill="#4d824b" opacity=".8" stroke="#fff" stroke-width=".7"/></g><g class="key-Moldova_0"><circle cx="76" cy="286" r="2" fill="#ffd336" opacity=".8" stroke="#fff" stroke-width=".7"/></g><g class="key-Uruguay_0"><circle cx="76" cy="358" r="1.99" fill="#69c487" opacity=".8" stroke="#fff" stroke-width=".7"/></g><g class="key-Lithuania_0"><circle cx="80" cy="431" r="1.99" fill="#ffd336" opacity=".8" stroke="#fff" stroke-width=".7"/></g><g class="key-Albania_0"><circle cx="84" cy="350" r="1.98" fill="#ffd336" opacity=".8" stroke="#fff" stroke-width=".7"/></g><g class="key-Armenia_0"><circle cx="90" cy="309" r="1.98" fill="#d14e5b" opacity=".8" stroke="#fff" stroke-width=".7"/></g><g class="key-Mongolia_0"><circle cx="79" cy="274" r="1.96" fill="#d14e5b" opacity=".8" stroke="#fff" stroke-width=".7"/></g><g class="key-Namibia_0"><circle cx="185" cy="167" r="1.93" fill="#5675c1" opacity=".8" stroke="#333" stroke-width=".7"/></g><g class="key-Latvia_0"><circle cx="80" cy="434" r="1.92" fill="#ffd336" opacity=".8" stroke="#fff" stroke-width=".7"/></g><g class="key-Macedonia_0"><circle cx="116" cy="300" r="1.91" fill="#ffd336" opacity=".8" stroke="#fff" stroke-width=".7"/></g><g class="key-Slovenia_0"><circle cx="75" cy="512" r="1.91" fill="#ffd336" opacity=".8" stroke="#fff" stroke-width=".7"/></g><g class="key-Gambia_0"><circle cx="158" cy="126" r="1.9" fill="#5675c1" opacity=".8" stroke="#333" stroke-width=".7"/></g><g class="key-Gabon_0"><circle cx="103" cy="157" r="1.88" fill="#5675c1" opacity=".8" stroke="#fff" stroke-width=".7"/></g><g class="key-Estonia_0"><circle cx="79" cy="484" r="1.87" fill="#ffd336" opacity=".8" stroke="#fff" stroke-width=".7"/></g><g class="key-Mauritius_0"><circle cx="79" cy="305" r="1.87" fill="#5675c1" opacity=".8" stroke="#fff" stroke-width=".7"/></g><g class="key-Cyprus_0"><circle cx="75" cy="484" r="1.86" fill="#ffd336" opacity=".8" stroke="#fff" stroke-width=".7"/></g><g class="key-Djibouti_0"><circle cx="260" cy="129" r="1.84" fill="#5675c1" opacity=".8" stroke="#fff" stroke-width=".7"/></g><g class="key-Fiji_0"><circle cx="86" cy="230" r="1.84" fill="#a652ba" opacity=".8" stroke="#fff" stroke-width=".7"/></g><g class="key-Comoros_0"><circle cx="224" cy="116" r="1.83" fill="#5675c1" opacity=".8" stroke="#fff" stroke-width=".7"/></g><g class="key-Bhutan_0"><circle cx="87" cy="208" r="1.83" fill="#d14e5b" opacity=".8" stroke="#fff" stroke-width=".7"/></g><g class="key-Montenegro_0"><circle cx="75" cy="454" r="1.82" fill="#ffd336" opacity=".8" stroke="#fff" stroke-width=".7"/></g><g class="key-Solomon-Islands_0"><circle cx="282" cy="253" r="1.82" fill="#a652ba" opacity=".8" stroke="#333" stroke-width=".7"/></g><g class="key-Luxembourg_0"><circle cx="76" cy="488" r="1.82" fill="#ffd336" opacity=".8" stroke="#fff" stroke-width=".7"/></g><g class="key-Malta_0"><circle cx="75" cy="386" r="1.81" fill="#ffd336" opacity=".8" stroke="#fff" stroke-width=".7"/></g><g class="key-Iceland_0"><circle cx="75" cy="512" r="1.8" fill="#ffd336" opacity=".8" stroke="#fff" stroke-width=".7"/></g><g class="key-Seychelles_0"><circle cx="84" cy="296" r="1.79" fill="#5675c1" opacity=".8" stroke="#fff" stroke-width=".7"/></g><g class="key-Yemen_0"><circle cx="230" cy="141" r="1.78" fill="#d14e5b" opacity=".8" stroke="#333" stroke-width=".7"/></g><g class="key-Russian-Federation_0"><circle cx="75" cy="366" r="1.78" fill="#000" opacity=".8" stroke="#fff" stroke-width=".7"/></g><g class="key-Palestine_0"><circle cx="83" cy="252" r="1.78" fill="#d14e5b" opacity=".8" stroke="#fff" stroke-width=".7"/></g><g class="key-Micronesia-__0028country__0029_0"><circle cx="207" cy="203" r="1.78" fill="#a652ba" opacity=".8" stroke="#fff" stroke-width=".7"/></g><g class="key-Slovak-Republic_0"><circle cx="80" cy="401" r="1.78" fill="#000" opacity=".8" stroke="#fff" stroke-width=".7"/></g><g class="key-Timor__002dLeste_0"><circle cx="325" cy="158" r="1.78" fill="#000" opacity=".8" stroke="#fff" stroke-width=".7"/></g><g class="key-East-Asia-__0026-Pacific_0"><circle cx="94" cy="283" r="1.78" fill="#000" opacity=".8" stroke="#fff" stroke-width=".7"/></g><g class="key-Europe-__0026-Central-Asia_0"><circle cx="87" cy="347" r="1.78" fill="#000" opacity=".8" stroke="#fff" stroke-width=".7"/></g><g class="key-Fragile-and-conflict-affected-situations_0"><circle cx="365" cy="110" r="1.78" fill="#000" opacity=".8" stroke="#fff" stroke-width=".7"/></g><g class="key-High-income_0"><circle cx="80" cy="405" r="1.78" fill="#000" opacity=".8" stroke="#fff" stroke-width=".7"/></g><g class="key-IDA-total_0"><circle cx="329" cy="115" r="1.78" fill="#000" opacity=".8" stroke="#333" stroke-width=".7"/></g><g class="key-Latin-America-__0026-Caribbean_0"><circle cx="109" cy="271" r="1.78" fill="#000" opacity=".8" stroke="#fff" stroke-width=".7"/></g><g class="key-Low-__0026-middle-income_0"><circle cx="173" cy="171" r="1.78" fill="#000" opacity=".8" stroke="#fff" stroke-width=".7"/></g><g class="key-Low-income_0"><circle cx="437" cy="116" r="1.78" fill="#000" opacity=".8" stroke="#fff" stroke-width=".7"/></g><g class="key-Lower-middle-income_0"><circle cx="189" cy="156" r="1.78" fill="#000" opacity=".8" stroke="#fff" stroke-width=".7"/></g><g class="key-Middle-East-__0026-North-Africa_0"><circle cx="116" cy="240" r="1.78" fill="#000" opacity=".8" stroke="#fff" stroke-width=".7"/></g><g class="key-South-Asia_0"><circle cx="208" cy="165" r="1.78" fill="#000" opacity=".8" stroke="#fff" stroke-width=".7"/></g><g class="key-Sub__002dSaharan-Africa_0"><circle cx="414" cy="106" r="1.78" fill="#000" opacity=".8" stroke="#fff" stroke-width=".7"/></g><g class="key-Upper-middle-income_0"><circle cx="89" cy="300" r="1.78" fill="#000" opacity=".8" stroke="#fff" stroke-width=".7"/></g><g class="key-World_0"><circle cx="157" cy="181" r="1.78" fill="#000" opacity=".8" stroke="#333" stroke-width=".7"/></g><g fill="#333" class="backgroundLabels"><text x="80" y="325.16" font-size="14.3">China</text><text x="85" y="372.22" font-size="11.77">United States</text><text x="122" y="221.22" font-size="11.6">Indonesia</text><text x="103" y="282.96" font-size="11.49">Brazil</text><text x="108" y="99.24" font-size="11.44">Pakistan</text><text x="197" y="194.76" font-size="11.37">Bangladesh</text><text x="95" y="295.49" font-size="11.29">Mexico</text><text x="91" y="246.08" font-size="11.22">Vietnam</text><text x="295" y="129.14" font-size="11.21">Ethiopia</text><text x="75" y="442.29" font-size="11.2">Germany</text><text x="558.04" y="87.77" font-size="11.17">Democratic Republic of Congo</text><text x="75" y="428.76" font-size="11.15">France</text><text x="231" y="182.13" font-size="11.12">South Africa</text><text x="127" y="151.18" font-size="11.12">Myanmar</text><text x="76" y="456.19" font-size="11.12">South Korea</text><text x="76" y="345.32" font-size="11.11">Ukraine</text><text x="378" y="158.34" font-size="11.11">Kenya</text><text x="418" y="150.58" font-size="11.09">Uganda</text><text x="79" y="407.64" font-size="11.08">Canada</text><text x="95" y="204.65" font-size="11.08">Iraq</text><text x="83" y="234.71" font-size="11.08">Morocco</text><text x="75" y="357.82" font-size="11.07">Malaysia</text><text x="174" y="149.96" font-size="11.06">Ghana</text><text x="593" y="107" font-size="11.06">Mozambique</text><text x="653.98" y="163.1" font-size="11.05">Madagascar</text><text x="122" y="359.15" font-size="11.05">Romania</text><text x="307" y="87.65" font-size="11.05">Cote d&apos;Ivoire</text><text x="435" y="94.29" font-size="11.04">Burkina Faso</text><text x="549" y="128.45" font-size="11.03">Zambia</text><text x="536" y="180.58" font-size="11.03">Rwanda</text><text x="133" y="190.63" font-size="11.03">Bolivia</text><text x="268" y="108.64" font-size="11.03">Haiti</text><text x="79" y="476.68" font-size="11.02">Sweden</text><text x="666" y="126.71" font-size="11.02">Burundi</text><text x="207" y="263.75" font-size="11.02">Honduras</text><text x="262" y="122.84" font-size="11.02">Laos</text><text x="480" y="106.84" font-size="11.02">Togo</text><text x="101" y="270.86" font-size="11.01">Nicaragua</text><text x="75" y="498.89" font-size="11.01">Finland</text><text x="393" y="103.95" font-size="11.01">Liberia</text><text x="76" y="395.99" font-size="11.01">Bosnia and Herzegovina</text><text x="185" y="164.07" font-size="11.01">Namibia</text><text x="158" y="123.1" font-size="11">Gambia</text><text x="282" y="250.18" font-size="11">Solomon Islands</text><text x="230" y="138.22" font-size="11">Yemen</text><text x="329" y="112.22" font-size="11">IDA total</text><text x="157" y="178.22" font-size="11">World</text></g></g><g class="ScatterColorLegend clickable" cursor="pointer"><g class="legendMark">,<path fill="#5675c1" d="M735 79.6h6v6h-6z"/>,<text font-size="12.6" x="746" y="86.7"><tspan x="746" y="86.68">Africa</tspan></text></g><g class="legendMark">,<path fill="#d14e5b" d="M735 97.2h6v6h-6z"/>,<text font-size="12.6" x="746" y="104.3"><tspan x="746" y="104.28">Asia</tspan></text></g><g class="legendMark">,<path fill="#ffd336" d="M735 114.8h6v6h-6z"/>,<text font-size="12.6" x="746" y="121.9"><tspan x="746" y="121.88">Europe</tspan></text></g><g class="legendMark">,<path fill="#4d824b" d="M735 132.4h6v6h-6z"/>,<text font-size="12.6" x="746" y="139.5"><tspan x="746" y="139.48">North America</tspan></text></g><g class="legendMark">,<path fill="#a652ba" d="M735 150h6v6h-6z"/>,<text font-size="12.6" x="746" y="157.1"><tspan x="746" y="157.08">Oceania</tspan></text></g><g class="legendMark">,<path fill="#69c487" d="M735 167.6h6v6h-6z"/>,<text font-size="12.6" x="746" y="174.7"><tspan x="746" y="174.68">South America</tspan></text></g></g></g><g class="SourcesFooter" fill="#777"><g class="clickable" fill="#777"><text font-size="12.6" x="15" y="581.6"><tspan x="15" y="581.58">Source: World Bank - WDI</tspan></text></g><text font-size="12.6" x="564.2" y="581.6"><tspan x="564.23" y="581.58"><a target="_blank" href="https://ourworldindata.org/child-mortality/" fill="#777">OurWorldInData.org/child-mortality/</a> • <a class="cclogo" href="http://creativecommons.org/licenses/by-sa/4.0/deed.en_US" target="_blank" fill="#777">CC BY-SA</a></tspan></text></g></g></svg>